<svg width="166" height="173" viewBox="0 0 166 173" fill="none" xmlns="http://www.w3.org/2000/svg">
<path d="M88.1646 0.493637C86.4309 1.23639 85.6467 2.43304 77.2675 17.0404C68.5993 32.1017 54.4001 56.3649 53.6571 57.3965C53.1205 58.098 52.4188 57.9742 40.1183 54.3842C32.9774 52.2798 24.9284 49.969 22.2454 49.185C19.5624 48.401 16.7143 47.782 15.8888 47.782C10.4815 47.782 7.83977 54.0541 11.5547 58.098C12.5041 59.1708 13.8662 59.666 21.6262 61.853C27.7352 63.5861 30.6659 64.6177 30.8723 65.0716C30.9961 65.4429 32.6472 69.7756 34.5459 74.686L37.9719 83.6403L36.5272 85.6209C35.6604 86.8176 34.8348 87.5603 34.4221 87.5191C34.0506 87.4778 28.1893 86.57 21.4611 85.5384C14.733 84.5068 8.58276 83.6815 7.7985 83.6815C4.95039 83.6815 2.14357 86.7351 2.14357 89.8299C2.14357 91.728 3.83592 94.4927 5.52827 95.3592C6.27125 95.7306 10.1513 97.2574 14.1139 98.7016C25.5063 102.869 26.0841 103.117 26.0841 103.612C26.0841 104.148 24.4744 106.954 11.0181 130.31C6.47764 138.15 2.14357 145.742 1.40058 147.187C-0.869645 151.354 -0.374323 154.16 2.84527 155.687C4.66145 156.554 6.31253 156.347 10.564 154.697L13.6598 153.5L22.4518 155.687C27.2812 156.884 38.6323 159.69 47.672 161.877L64.1001 165.92L63.8525 166.911C63.481 168.396 64.3478 170.583 65.7512 171.78C67.9802 173.637 69.2598 173.348 84.4084 167.612C102.859 160.597 131.34 149.951 148.47 143.638C164.114 137.861 164.32 137.778 163.536 137.325C163.082 137.036 163.123 136.706 163.66 135.55C164.568 133.652 164.527 131.63 163.536 130.021C162.587 128.412 162.298 128.288 156.23 125.977C153.588 124.945 151.112 123.831 150.74 123.419C150.369 123.006 147.933 116.528 145.374 109.059C142.815 101.549 139.637 92.347 138.316 88.5507C137.036 84.7132 136.087 81.5358 136.252 81.412C136.417 81.3295 137.284 81.4533 138.151 81.6596C143.847 83.2276 147.686 76.089 143.641 71.5087C142.609 70.3121 141.659 69.8169 138.192 68.7853C135.922 68.0838 133.858 67.3411 133.652 67.176C133.487 66.9697 137.944 58.3456 143.641 47.9058C165.765 7.34343 165.6 7.67355 165.6 5.8992C165.6 0.0397339 158.294 -2.10599 155.033 2.76315L153.919 4.45497H130.515C117.636 4.45497 104.634 4.33118 101.58 4.20738L96.0484 3.91853L94.934 2.35051C93.3654 0.122269 90.6824 -0.579224 88.1646 0.493637ZM85.4816 12.7903C83.1701 16.9166 80.5696 21.5382 79.7441 23.0237C78.8773 24.5092 74.667 32.1843 70.333 40.1482C62.1189 55.3333 58.8167 61.1927 49.4056 77.2031C42.3885 89.0871 42.306 89.2109 40.82 88.8395C40.2008 88.6745 39.7055 88.3856 39.7055 88.2206C39.7055 87.8492 51.263 68.5377 61.5823 51.7021C68.558 40.272 76.5658 26.82 81.8079 17.6594C86.8437 8.82893 89.3203 4.78508 89.5267 4.99139C89.6093 5.11519 87.7931 8.62262 85.4816 12.7903ZM152.969 17.4943C145.25 32.2255 145.911 30.9876 135.468 49.969C127.336 64.7414 127.047 65.1541 126.015 64.9065C125.438 64.7414 124.818 64.4939 124.653 64.3701C124.488 64.205 127.749 58.1392 131.877 50.8768C140.875 35.0727 158.996 4.74382 159.285 4.99139C159.367 5.11519 156.519 10.7271 152.969 17.4943ZM110.289 7.54976C110.289 7.67355 109.959 8.45757 109.505 9.3241C109.092 10.1494 107.4 15.101 105.749 20.3416C102.323 31.3177 100.052 37.7549 96.6263 46.1314C93.7782 53.0638 93.2416 53.9716 92.0859 53.9716C91.6318 53.9716 90.765 54.2192 90.1459 54.5493C87.2977 56.0348 86.0594 58.8407 86.8024 62.2656C87.2977 64.4939 87.0088 65.1953 83.1701 71.4262C78.6296 78.7711 72.3142 86.6113 68.2691 89.9537C65.7099 92.0994 64.9257 92.3057 61.2108 91.4804L59.1469 91.0265L63.3572 86.8589C71.8602 78.3585 79.6615 66.5983 87.2152 50.8355C91.508 41.8813 93.5306 36.6408 97.9472 23.3125C102.281 10.2319 102.488 9.73674 103.808 8.25124C104.51 7.46722 105.088 7.34343 107.482 7.34343C109.009 7.34343 110.289 7.42596 110.289 7.54976ZM124.736 7.87987C124.736 8.16872 124.571 8.58134 124.364 8.78767C124.158 9.03525 122.589 13.5743 120.897 18.8973C116.646 32.143 113.756 40.272 110.743 47.5344C107.358 55.6221 106.285 57.6853 105.46 57.6853C104.221 57.6853 100.383 56.2824 100.383 55.8697C100.383 55.6221 101.373 53.1876 102.611 50.4641C105.583 43.7794 108.638 35.4028 113.22 21.3731C117.76 7.42596 117.801 7.34343 122.012 7.34343C123.993 7.34343 124.736 7.50848 124.736 7.87987ZM139.183 8.78767C138.687 9.57169 136.293 16.2977 133.858 23.7252C131.381 31.1939 128.41 39.8593 127.254 43.0367C124.075 51.4958 119.329 62.2243 118.792 62.2243C117.884 62.2243 113.178 60.4913 113.178 60.2024C113.178 59.9961 114.458 57.0251 115.985 53.5177C119.659 45.3062 122.466 37.7549 127.708 22.1984C132.702 7.21965 132.661 7.34343 137.119 7.34343H140.091L139.183 8.78767ZM92.9527 15.1423C92.9527 15.8438 87.5454 31.359 85.2339 37.2597C82.3445 44.6872 75.2036 59.1296 71.6125 64.824C67.7738 70.8485 63.0269 76.8317 58.8167 80.7931C53.5745 85.786 49.8183 88.0968 52.006 85.0433C54.8129 81.1232 65.0908 63.3385 72.3142 50.0515C84.3671 27.769 89.6505 18.1546 91.1778 15.6787C91.7144 14.7709 92.9527 14.3996 92.9527 15.1423ZM147.603 15.101C147.81 15.4312 141.577 26.82 141.329 26.5311C141.205 26.4073 143.723 17.9895 144.59 15.7613C144.838 15.0185 145.25 14.7709 146.159 14.7709C146.819 14.7709 147.479 14.936 147.603 15.101ZM18.0764 52.5273C19.3147 54.4255 17.3747 56.695 15.4347 55.6634C13.536 54.6318 14.2377 51.4958 16.3841 51.4958C17.0032 51.4958 17.6637 51.9084 18.0764 52.5273ZM95.388 59.1296C95.7182 59.7898 96.1723 60.4913 96.4199 60.6563C96.6676 60.8214 102.777 62.9258 110 65.3604C117.182 67.7537 123.085 69.8582 123.085 70.0645C123.085 70.2295 122.755 70.766 122.383 71.2611L121.64 72.1277L107.276 67.4236C99.3506 64.824 92.5399 62.3894 92.0859 61.9768C91.219 61.1927 91.0539 59.7073 91.7556 58.4693C92.4574 57.1489 94.645 57.5615 95.388 59.1296ZM46.0622 68.7853C46.3098 69.1567 45.2366 70.8072 44.9477 70.4771C44.8651 70.3533 44.6175 69.8582 44.4936 69.3217C44.246 68.579 44.3698 68.4139 45.0302 68.4139C45.4843 68.4139 45.9383 68.579 46.0622 68.7853ZM96.4612 69.1979C97.8233 69.6931 98.5251 70.1883 98.4838 70.6009C98.3599 71.715 93.1178 80.463 90.1046 84.5068C86.8024 88.9633 79.9917 95.9782 78.6296 96.3083C77.35 96.6384 75.5338 95.6481 74.8734 94.2864C74.3368 93.1722 74.3781 93.0897 77.5564 89.9537C82.0556 85.5384 87.8756 77.4507 92.2097 69.6931C92.9939 68.2489 93.5718 68.1663 96.4612 69.1979ZM109.34 73.2418C110.537 73.6132 111.527 74.0671 111.527 74.2734C111.527 75.47 105.336 85.6622 101.745 90.4076C98.9791 94.0388 94.7276 98.8254 93.1178 100.022L91.7556 101.095L89.568 100.393C88.3709 99.9808 87.2152 99.5269 87.0088 99.3618C86.8437 99.1555 88.3709 97.0923 90.4761 94.7815C94.934 89.8299 99.1855 83.9291 103.148 77.2857C104.675 74.686 106.203 72.5403 106.533 72.5403C106.863 72.5403 108.101 72.8704 109.34 73.2418ZM132.083 73.6132C133.28 74.4384 133.198 76.5016 131.918 77.3682C131.175 77.8633 130.927 77.8221 129.978 77.0381C128.657 76.0477 128.575 74.8923 129.689 73.7782C130.68 72.7879 130.886 72.7879 132.083 73.6132ZM130.886 100.558C134.106 109.925 136.706 117.765 136.624 117.931C136.5 118.219 112.064 109.513 110.826 108.729C110.454 108.481 110.537 108.068 111.073 107.078C111.486 106.335 114.664 100.517 118.132 94.08C122.053 86.8176 124.571 82.6087 124.736 82.9388C124.901 83.2276 127.667 91.1503 130.886 100.558ZM134.518 88.5094C135.22 90.5313 138.027 98.454 140.751 106.17C143.476 113.887 146.819 123.377 148.222 127.256C149.585 131.135 150.74 134.436 150.74 134.56C150.74 135.096 148.305 133.941 148.057 133.281C147.603 132.167 140.173 111.37 137.325 103.282C131.547 86.7763 131.753 87.5191 132.207 86.1574C132.455 85.4972 132.785 84.9195 132.95 84.9195C133.115 84.9195 133.817 86.5288 134.518 88.5094ZM10.564 88.7157C10.3989 89.4585 10.3164 90.5726 10.3577 91.1916C10.4402 92.6771 9.11936 92.7596 7.71594 91.3154C6.56019 90.2012 6.51891 89.9537 7.09679 88.4682C7.42701 87.5604 7.75722 87.3953 9.20191 87.3953H10.8943L10.564 88.7157ZM18.6956 88.8395C20.1816 89.0459 20.2228 89.0871 20.1816 91.0265C20.1403 93.5436 21.0484 95.2767 23.9378 98.2064C25.2173 99.5269 26.1254 100.6 26.0016 100.6C25.8365 100.6 24.3092 99.9808 22.6169 99.1968C18.159 97.1336 14.1139 93.1722 14.1139 90.8202C14.1139 89.4998 15.3109 88.1793 16.3015 88.3856C16.7969 88.5094 17.8701 88.6745 18.6956 88.8395ZM31.7391 90.7377L34.3395 91.1916V93.2135C34.3395 94.3276 34.6285 95.9369 34.9587 96.8035C35.6604 98.4953 40.3659 103.447 42.5123 104.809C44.6175 106.088 43.7919 106.17 40.5723 104.932C32.1518 101.714 26.1667 94.6577 28.4369 90.5726C28.6433 90.2012 28.602 90.2012 31.7391 90.7377ZM106.739 101.631C103.808 107.202 101.249 111.7 101.002 111.617C100.795 111.535 100.3 110.957 99.9697 110.338C99.268 109.1 98.7314 110.338 104.675 99.4856C107.523 94.3689 108.143 93.5023 109.835 92.4295C110.867 91.7693 111.816 91.2741 111.899 91.3566C111.981 91.4392 109.67 96.0607 106.739 101.631ZM47.2592 92.9659L48.7864 93.2135V95.6068C48.7864 97.7525 48.9928 98.3302 50.4788 100.558C52.4188 103.488 56.3401 106.789 60.5091 109.1C62.0776 109.967 63.1921 110.709 62.9444 110.792C62.1601 111.081 54.8954 108.481 52.0886 106.913C48.9103 105.139 44.3285 100.682 43.0902 98.0826C42.0996 96.0194 41.8932 93.6261 42.6775 92.8421C42.9664 92.5533 43.7506 92.4295 44.4524 92.512C45.1128 92.6358 46.3924 92.8421 47.2592 92.9659ZM61.0044 95.0291L62.738 95.2767L62.5316 97.8351C62.284 101.219 63.2333 102.745 66.9895 104.726C68.5168 105.51 70.4568 106.872 71.3236 107.738C73.0572 109.471 76.0292 111.246 79.0836 112.401C82.0969 113.515 80.6522 113.598 76.3181 112.566C70.7044 111.246 65.5036 108.605 61.9537 105.263C60.3439 103.736 58.569 101.673 57.9912 100.682C56.175 97.6287 56.5878 94.0388 58.6929 94.5752C59.0231 94.699 60.0963 94.8641 61.0044 95.0291ZM70.7457 96.3496C71.0759 96.7622 71.53 97.5875 71.7776 98.1652C72.273 99.3618 71.4474 98.9904 87.0914 104.52C91.4254 106.088 95.0165 107.573 95.0165 107.821C95.0165 108.068 94.7689 108.605 94.4799 109.018C93.9846 109.678 93.0765 109.43 82.0143 105.634C68.9295 101.177 68.5168 101.012 67.6087 99.6919C66.7419 98.4953 66.7831 98.0414 67.8151 96.7209C68.8057 95.483 69.8789 95.3592 70.7457 96.3496ZM54.978 113.185C63.481 116.404 73.8415 120.324 78.0105 121.851C82.1381 123.419 85.5228 124.822 85.5228 124.987C85.5228 125.399 86.5548 125.152 64.2653 130.722C53.3682 133.487 38.6736 137.201 31.6152 138.975C24.5156 140.791 18.613 142.276 18.4479 142.276C18.2828 142.276 18.613 141.492 19.1909 140.502C19.7275 139.553 22.8646 134.023 26.0841 128.247C37.3527 108.068 38.137 106.748 38.8387 107.037C39.2102 107.161 46.4749 109.925 54.978 113.185ZM92.0446 113.226C92.7463 113.433 92.6637 114.258 91.7969 115.331L91.0952 116.28L88.1233 115.125C86.4722 114.506 85.1101 113.887 85.1101 113.763C85.1101 113.061 90.2284 112.649 92.0446 113.226ZM114.252 121.19C118.998 122.965 126.304 125.688 130.515 127.215C140.215 130.764 142.609 131.836 142.279 132.373C142.113 132.62 141.494 132.744 140.916 132.62C140.297 132.497 131.092 130.97 120.402 129.237C109.752 127.504 100.919 126.018 100.795 125.894C100.465 125.606 104.675 117.931 105.171 117.931C105.418 117.931 109.505 119.375 114.252 121.19ZM94.4799 123.336C93.902 124.326 91.7556 128.412 89.6505 132.373C84.656 141.74 71.1172 166.251 70.5806 166.911C70.0027 167.612 68.8057 167.571 68.2278 166.869C67.8151 166.416 67.9389 165.838 68.8057 164.146C71.1172 159.566 88.1646 129.196 89.1552 127.834C90.5173 126.018 95.0991 121.19 95.3055 121.355C95.388 121.438 95.0165 122.346 94.4799 123.336ZM20.8833 122.717C21.0071 123.089 21.1309 123.625 21.1309 123.914C21.1309 124.409 7.46828 149.332 6.60147 150.405C6.02359 151.107 4.66145 151.065 4.37252 150.364C4.24869 150.034 5.69338 147.104 7.59211 143.844C9.49085 140.626 13.0819 134.354 15.5585 129.98C18.0352 125.647 20.1816 122.057 20.3467 122.057C20.5118 122.057 20.7594 122.346 20.8833 122.717ZM25.2586 145.123C29.9229 146.238 39.0038 148.383 45.4843 149.91C59.8486 153.294 68.2278 155.398 68.4755 155.646C68.8057 155.976 67.361 158.369 66.7831 158.369C66.4942 158.369 61.7061 157.255 56.175 155.935C50.6439 154.573 38.9213 151.767 30.1293 149.662C21.296 147.517 14.1139 145.66 14.1139 145.454C14.1139 144.711 15.476 143.101 16.1364 143.101C16.5079 143.101 20.5943 144.009 25.2586 145.123Z" fill="#934541"/>
</svg>
