<svg width="194" height="163" viewBox="0 0 194 163" fill="none" xmlns="http://www.w3.org/2000/svg">
<g clip-path="url(#clip0_198_1574)">
<path d="M78.0449 95.5371V39.363L73.6143 34.5493V95.5371H78.0449Z" fill="#F3E7D9"/>
<path d="M82.3076 95.5371H86.7396V39.363L82.3076 34.5493V95.5371Z" fill="#F3E7D9"/>
<path d="M90.9956 95.334H95.4269V71.3527L90.9956 66.539V95.334Z" fill="#F3E7D9"/>
<mask id="mask0_198_1574" style="mask-type:luminance" maskUnits="userSpaceOnUse" x="0" y="0" width="194" height="163">
<path d="M0 0H194V163H0V0Z" fill="white"/>
</mask>
<g mask="url(#mask0_198_1574)">
<path d="M115.986 66.2126C111.789 66.2126 107.814 67.8334 104.797 70.7757L103.654 71.8922L99.4771 67.3577V95.2656H103.909L103.913 81.1707C104.417 74.9506 109.722 70.0779 115.986 70.0779C119.224 70.0779 122.266 71.3377 124.556 73.6228C126.847 75.9081 128.11 78.9487 128.108 82.1827L128.122 95.2656H131.976L131.991 83.6715C131.733 82.4269 131.592 81.148 131.592 79.8459C131.592 79.4802 131.606 79.1163 131.625 78.7569C130.059 71.5943 123.644 66.2126 115.986 66.2126Z" fill="#F3E7D9"/>
<path d="M137.27 88.8515C135.338 86.7293 134.25 83.9636 134.25 81.0936C134.25 74.7122 139.467 69.5207 145.876 69.5207C152.288 69.5207 157.504 74.7122 157.504 81.0936C157.504 87.4768 152.288 92.6681 145.876 92.6681C145.179 92.6681 144.475 92.6016 143.774 92.4718L138.77 100.501L139.895 101.198L139.902 101.185L141.131 101.948L153.353 109.714C155.075 111.277 156.06 113.494 156.06 115.794C156.06 120.338 152.347 124.033 147.784 124.033C143.715 124.033 140.323 121.093 139.635 117.233H138.388C139.092 121.778 143.039 125.262 147.784 125.262C153.028 125.262 157.293 121.014 157.293 115.794C157.293 111.314 154.22 108.616 151.64 107.138L140.363 100.395L143.283 95.7239L144.201 95.8279C144.801 95.8961 145.351 95.9292 145.876 95.9292C154.095 95.9292 160.78 89.2743 160.78 81.0936C160.78 77.727 159.665 74.5463 157.557 71.8997L156.894 71.066L156.925 71.0222L155.688 69.9437C152.966 67.5694 149.482 66.2614 145.876 66.2614C138.069 66.2614 131.651 72.2698 131.03 79.8853C131.24 80.9789 131.355 82.1072 131.355 83.2626L131.353 84.4016C131.986 87.1612 133.403 89.6849 135.477 91.6908L137.27 88.8515Z" fill="#F3E7D9"/>
<path d="M158.085 72.7959L156.917 72.0424L159.091 68.7103L160.26 69.4655L158.085 72.7959Z" fill="#F3E7D9"/>
<path d="M36.1267 66.4064V65.1338H34.7139L34.7209 95.3506H38.2327V69.7473H42.8043L46.0234 66.4064H36.1267Z" fill="#F3E7D9"/>
<path d="M44.4558 81.5737C44.4558 75.1905 49.6703 69.9978 56.0808 69.9962C62.4816 70.01 67.6858 75.1982 67.6858 81.5719C67.6858 87.9565 62.4702 93.148 56.0609 93.1499C49.6588 93.1375 44.4558 87.9474 44.4558 81.5737ZM70.9883 81.5737C70.9883 73.8191 64.9813 67.4391 57.3552 66.7945C57.3144 66.791 57.2725 66.7879 57.2311 66.7851C56.8516 66.7567 56.4701 66.7369 56.0838 66.7369H56.0709H56.0588C55.672 66.7369 55.2896 66.7567 54.9117 66.7851L54.7851 66.7945C47.1596 67.4405 41.1528 73.8191 41.1528 81.5719C41.1528 89.3281 47.1606 95.7067 54.7867 96.3518C54.8274 96.3546 54.8686 96.3577 54.9101 96.3605C55.2896 96.391 55.672 96.4092 56.0588 96.4092H56.0709H56.0838C56.4692 96.4092 56.8506 96.391 57.2302 96.3605C57.2718 96.3577 57.3151 96.3546 57.3561 96.3518C64.9813 95.7067 70.9883 89.3267 70.9883 81.5737Z" fill="#F3E7D9"/>
</g>
</g>
<defs>
<clipPath id="clip0_198_1574">
<rect width="194" height="163" fill="white"/>
</clipPath>
</defs>
</svg>
