<svg width="488" height="488" viewBox="0 0 488 488" fill="none" xmlns="http://www.w3.org/2000/svg">
<path d="M375.983 38.9226C489.171 111.888 521.778 262.795 448.812 375.983C375.847 489.171 224.94 521.778 111.752 448.812C-1.43631 375.847 -34.043 224.94 38.9226 111.752C111.888 -1.43631 262.795 -34.043 375.983 38.9226Z" fill="#DFA13E"/>
<path d="M55.1138 125.333C56.4812 123.212 58.1286 121.377 60.0562 119.83C62.0025 118.295 64.0731 117.185 66.2679 116.5C68.4507 115.835 70.5958 115.743 72.7033 116.225L71.5148 121.716C70.2216 121.414 68.8541 121.516 67.4123 122.021C65.9771 122.557 64.596 123.381 63.2688 124.492C61.9416 125.602 60.8001 126.899 59.8441 128.382C58.7551 130.072 58.0168 131.814 57.6295 133.611C57.2487 135.438 57.2654 137.123 57.6794 138.665C58.0935 140.207 58.9669 141.408 60.2996 142.267C61.6699 143.15 63.0893 143.401 64.5578 143.019C66.0451 142.649 67.514 141.896 68.9647 140.758C70.4341 139.633 71.8239 138.363 73.134 136.949C75.3391 134.518 77.5504 132.489 79.7679 130.863C81.9921 129.268 84.2604 128.325 86.5728 128.035C88.8731 127.765 91.2528 128.422 93.7118 130.007C96.0019 131.483 97.5775 133.429 98.4386 135.844C99.2876 138.278 99.4796 140.886 99.0145 143.669C98.5494 146.451 97.5061 149.1 95.8846 151.615C94.5414 153.699 92.9121 155.505 90.9967 157.034C89.0879 158.593 87.03 159.725 84.8231 160.428C82.6161 161.131 80.4093 161.236 78.2025 160.743L79.4554 155.214C80.7674 155.528 82.1409 155.417 83.5761 154.881C85.0179 154.375 86.393 153.561 87.7014 152.438C89.0165 151.346 90.1581 150.049 91.1261 148.548C92.2218 146.889 92.954 145.156 93.3226 143.347C93.6912 141.539 93.6685 139.864 93.2545 138.321C92.8404 136.779 91.9764 135.584 90.6625 134.737C89.0857 133.721 87.6087 133.353 86.2316 133.635C84.8612 133.947 83.5036 134.693 82.1589 135.872C80.8142 137.051 79.4014 138.439 77.9207 140.035C75.8432 142.31 73.6334 144.233 71.2912 145.805C68.9678 147.39 66.6129 148.343 64.2266 148.665C61.8282 149.005 59.5028 148.45 57.2503 146.997C54.9602 145.521 53.3906 143.566 52.5416 141.132C51.6805 138.717 51.4825 136.118 51.9476 133.336C52.4127 130.553 53.4681 127.886 55.1138 125.333Z" fill="white"/>
<path d="M67.7778 234.725L67.4447 241.518L19.7659 256.252L20.0579 250.296L29.7981 247.285L30.8761 225.302L21.4756 221.387L21.7693 215.397L67.7778 234.725ZM36.3956 227.652L35.521 245.486L60.4183 237.752L36.3956 227.652Z" fill="white"/>
<path d="M33.4828 325.401L79.348 312.044L81.3228 315.888L57.4909 342.368L92.881 338.385L94.8559 342.229L57.3035 371.766L54.6857 366.671L81.944 345.247L48.4998 349.059L46.8005 345.752L69.3754 320.783L36.1007 330.497L33.4828 325.401Z" fill="white"/>
<path d="M111.32 426.34L136.731 386.921L160.918 402.513L157.868 407.243L138.412 394.701L131.188 405.907L147.125 416.181L144.075 420.911L128.139 410.637L119.1 424.659L138.556 437.202L135.507 441.932L111.32 426.34Z" fill="white"/>
<path d="M253.772 423.059L253.496 428.681L237.904 427.916L235.882 469.138L230.261 468.863L232.283 427.64L216.724 426.877L217 421.256L253.772 423.059Z" fill="white"/>
<path d="M346.288 445.138C343.467 446.587 340.53 447.393 337.475 447.556C334.41 447.7 331.424 447.263 328.516 446.246C325.608 445.229 322.95 443.695 320.54 441.644C318.12 439.573 316.145 437.047 314.614 434.068C313.083 431.088 312.185 428.021 311.921 424.868C311.646 421.695 311.943 418.63 312.809 415.674C313.676 412.718 315.065 410.046 316.976 407.658C318.878 405.249 321.239 403.321 324.06 401.872C326.9 400.412 329.853 399.611 332.918 399.467C335.973 399.304 338.954 399.731 341.862 400.748C344.769 401.765 347.423 403.314 349.823 405.395C352.233 407.446 354.203 409.962 355.734 412.941C357.265 415.921 358.168 418.998 358.442 422.171C358.726 425.314 358.435 428.364 357.569 431.32C356.702 434.276 355.318 436.958 353.417 439.366C351.505 441.754 349.129 443.678 346.288 445.138ZM343.716 440.132C345.882 439.019 347.673 437.546 349.092 435.713C350.53 433.869 351.561 431.82 352.186 429.566C352.82 427.282 353.024 424.942 352.798 422.547C352.582 420.123 351.892 417.778 350.728 415.513C349.565 413.249 348.06 411.322 346.215 409.735C344.36 408.127 342.329 406.935 340.123 406.16C337.927 405.355 335.66 405.001 333.324 405.096C331.008 405.182 328.777 405.775 326.632 406.878C324.466 407.99 322.665 409.468 321.227 411.312C319.808 413.145 318.782 415.204 318.148 417.488C317.523 419.742 317.319 422.082 317.535 424.507C317.761 426.902 318.456 429.231 319.62 431.496C320.793 433.78 322.303 435.716 324.148 437.304C325.993 438.892 328.014 440.089 330.21 440.894C332.427 441.689 334.693 442.043 337.009 441.958C339.335 441.843 341.571 441.234 343.716 440.132Z" fill="white"/>
<path d="M429.321 369.605L380.681 358.498L383.912 353.486L425.437 362.956L399.685 329.018L402.898 324.034L433.097 363.749L429.321 369.605Z" fill="white"/>
<path d="M419.271 257.765L419.604 250.973L467.283 236.239L466.991 242.195L457.251 245.205L456.173 267.188L465.573 271.104L465.28 277.093L419.271 257.765ZM450.653 264.838L451.528 247.004L426.631 254.738L450.653 264.838ZM415.687 255.61L406.182 252.461L406.458 246.84L415.871 251.863L415.687 255.61Z" fill="white"/>
<path d="M90.1626 392.059C85.5987 393.53 81.5007 389.009 83.4109 384.611C87.6504 374.85 94.0214 360.604 99.4421 350.235C104.216 341.103 111.116 329.5 116.363 320.9C120.892 313.478 129.46 309.334 137.531 312.569C143.615 315.008 150.676 318.951 156.38 325.243C162.084 331.536 165.317 338.949 167.148 345.243C169.578 353.591 164.617 361.711 156.788 365.493C147.717 369.874 135.494 375.607 125.94 379.465C115.091 383.846 100.291 388.794 90.1626 392.059Z" fill="white"/>
<path d="M37.8027 295.842C33.1146 294.834 31.8258 288.871 35.6792 286.017C44.2314 279.683 56.8717 270.531 66.7509 264.262C75.4508 258.74 87.2279 252.141 96.0717 247.317C103.705 243.154 113.197 243.849 118.569 250.687C122.619 255.841 126.763 262.786 128.556 271.087C130.35 279.389 129.443 287.425 127.882 293.792C125.812 302.236 117.455 306.788 108.785 306.148C98.7384 305.407 85.287 304.261 75.0832 302.824C63.4972 301.194 48.2068 298.079 37.8027 295.842Z" fill="white"/>
<path d="M40.5658 186.336C37.0097 183.119 38.8754 177.31 43.6395 176.765C54.2128 175.556 69.7354 173.951 81.426 173.46C91.7211 173.029 105.22 173.203 115.291 173.447C123.983 173.658 131.855 179.006 133.089 187.613C134.019 194.102 134.135 202.188 131.538 210.274C128.941 218.36 124.137 224.867 119.602 229.6C113.587 235.878 104.074 235.642 96.8851 230.752C88.5553 225.087 77.4792 217.369 69.3605 211.023C60.142 203.818 48.4575 193.475 40.5658 186.336Z" fill="white"/>
<path d="M97.711 92.8832C96.2399 88.3192 100.76 84.2212 105.158 86.1315C114.92 90.371 129.165 96.742 139.535 102.163C148.667 106.936 160.27 113.836 168.869 119.083C176.292 123.612 180.435 132.18 177.2 140.251C174.761 146.335 170.818 153.397 164.526 159.1C158.234 164.804 150.82 168.037 144.527 169.869C136.179 172.298 128.058 167.337 124.277 159.509C119.896 150.437 114.163 138.215 110.304 128.66C105.924 117.811 100.976 103.012 97.711 92.8832Z" fill="white"/>
<path d="M193.928 40.5225C194.936 35.8345 200.899 34.5456 203.753 38.3991C210.087 46.9513 219.238 59.5915 225.508 69.4707C231.03 78.1707 237.629 89.9478 242.452 98.7916C246.616 106.425 245.92 115.917 239.083 121.289C233.929 125.339 226.984 129.482 218.683 131.276C210.381 133.07 202.345 132.163 195.978 130.602C187.534 128.532 182.982 120.175 183.622 111.505C184.363 101.458 185.509 88.0069 186.945 77.8031C188.576 66.217 191.691 50.9266 193.928 40.5225Z" fill="white"/>
<path d="M303.433 43.286C306.65 39.73 312.459 41.5957 313.004 46.3598C314.213 56.9331 315.818 72.4557 316.308 84.1462C316.74 94.4414 316.566 107.94 316.322 118.011C316.111 126.704 310.763 134.576 302.156 135.81C295.667 136.74 287.58 136.856 279.495 134.258C271.409 131.661 264.902 126.857 260.169 122.322C253.891 116.308 254.127 106.794 259.016 99.6054C264.682 91.2756 272.4 80.1995 278.746 72.0808C285.951 62.8623 296.294 51.1778 303.433 43.286Z" fill="white"/>
<path d="M396.886 100.432C401.45 98.9605 405.548 103.481 403.638 107.879C399.399 117.64 393.028 131.886 387.607 142.255C382.833 151.387 375.933 162.99 370.686 171.59C366.157 179.012 357.589 183.156 349.518 179.921C343.434 177.482 336.373 173.539 330.669 167.247C324.965 160.954 321.732 153.541 319.901 147.247C317.471 138.899 322.432 130.779 330.261 126.997C339.332 122.616 351.555 116.883 361.109 113.025C371.958 108.644 386.758 103.696 396.886 100.432Z" fill="white"/>
<path d="M449.246 196.648C453.934 197.656 455.223 203.62 451.37 206.473C442.818 212.807 430.177 221.959 420.298 228.229C411.598 233.75 399.821 240.349 390.977 245.173C383.344 249.336 373.852 248.641 368.48 241.804C364.43 236.649 360.286 229.704 358.493 221.403C356.699 213.102 357.606 205.065 359.167 198.699C361.237 190.254 369.594 185.702 378.264 186.342C388.311 187.083 401.762 188.23 411.966 189.666C423.552 191.296 438.842 194.411 449.246 196.648Z" fill="white"/>
<path d="M446.483 306.154C450.039 309.371 448.174 315.18 443.409 315.725C432.836 316.934 417.314 318.539 405.623 319.03C395.328 319.462 381.829 319.288 371.758 319.043C363.066 318.833 355.194 313.484 353.96 304.877C353.03 298.388 352.914 290.302 355.511 282.216C358.108 274.13 362.912 267.623 367.447 262.89C373.462 256.613 382.975 256.848 390.164 261.738C398.494 267.403 409.57 275.121 417.689 281.467C426.907 288.672 438.591 299.015 446.483 306.154Z" fill="white"/>
<path d="M389.338 399.607C390.809 404.171 386.289 408.269 381.891 406.359C372.129 402.119 357.884 395.748 347.514 390.327C338.382 385.554 326.779 378.654 318.18 373.407C310.757 368.878 306.614 360.31 309.849 352.239C312.288 346.155 316.231 339.094 322.523 333.39C328.815 327.686 336.229 324.453 342.522 322.621C350.87 320.192 358.991 325.153 362.772 332.982C367.153 342.053 372.886 354.275 376.745 363.83C381.125 374.679 386.073 389.478 389.338 399.607Z" fill="white"/>
<path d="M293.121 451.968C292.113 456.656 286.15 457.945 283.296 454.091C276.962 445.539 267.811 432.899 261.541 423.019C256.019 414.319 249.42 402.542 244.597 393.699C240.433 386.065 241.129 376.573 247.966 371.201C253.12 367.151 260.065 363.008 268.366 361.214C276.668 359.421 284.704 360.327 291.071 361.888C299.515 363.958 304.067 372.315 303.427 380.985C302.686 391.032 301.54 404.483 300.104 414.687C298.473 426.273 295.358 441.564 293.121 451.968Z" fill="white"/>
<path d="M183.616 449.204C180.399 452.76 174.59 450.894 174.045 446.13C172.836 435.557 171.231 420.034 170.741 408.344C170.309 398.049 170.483 384.55 170.727 374.479C170.938 365.787 176.286 357.914 184.893 356.681C191.382 355.751 199.469 355.634 207.554 358.232C215.64 360.829 222.147 365.633 226.88 370.168C233.158 376.183 232.922 385.696 228.033 392.885C222.367 401.215 214.649 412.291 208.303 420.409C201.098 429.628 190.755 441.312 183.616 449.204Z" fill="white"/>
<path d="M303.056 153.897C354.058 186.776 368.75 254.774 335.872 305.776C302.994 356.778 234.996 371.471 183.994 338.593C132.991 305.715 118.299 237.716 151.177 186.714C184.055 135.712 252.053 121.019 303.056 153.897Z" fill="white"/>
<path d="M153.433 98.98L130.668 54.42L136.015 51.6882L156.049 90.9009L176.005 80.7051L178.737 86.0523L153.433 98.98Z" fill="white"/>
<path d="M237.953 73.252L240.518 23.2791L271.18 24.8525L270.872 30.8492L246.207 29.5836L245.478 43.7901L265.681 44.8269L265.373 50.8236L245.17 49.7869L244.258 67.563L268.923 68.8286L268.615 74.8254L237.953 73.252ZM254.212 20.045L257.595 9.91144L263.592 10.2192L258.21 20.2502L254.212 20.045Z" fill="white"/>
<path d="M381.317 70.6654L378.053 75.7048L364.074 66.6487L340.132 103.605L335.092 100.34L359.035 63.3839L345.086 54.3472L348.351 49.3077L381.317 70.6654Z" fill="white"/>
<path d="M439.296 141.787L442.597 148.248L406.314 187.215L403.42 181.549L410.832 173.588L400.148 152.677L389.37 154.049L386.459 148.352L439.296 141.787ZM406.503 151.919L415.171 168.883L434.096 148.498L406.503 151.919Z" fill="white"/>
</svg>
