<svg width="795" height="343" viewBox="0 0 795 343" fill="none" xmlns="http://www.w3.org/2000/svg">
<path d="M0.776367 205.682L757.579 2.89777" stroke="#32373B" stroke-width="6"/>
<path d="M63.0722 296.916C59.6104 297.843 56.1117 298.201 52.5763 297.989C49.0719 297.769 45.845 296.977 42.8957 295.614C39.9464 294.25 37.6045 292.311 35.87 289.794L41.335 285.894C42.5285 287.629 44.208 288.951 46.3734 289.861C48.5615 290.733 50.9604 291.216 53.5701 291.312C56.2108 291.4 58.7984 291.104 61.333 290.425C64.3003 289.63 66.9342 288.394 69.2347 286.717C71.5351 285.041 73.2375 283.111 74.3418 280.926C75.4378 278.711 75.6628 276.398 75.0168 273.987C74.3625 271.545 73.0051 269.756 70.9445 268.618C68.8839 267.481 66.4353 266.812 63.5987 266.611C60.7847 266.371 57.9051 266.381 54.9598 266.64C50.3327 267.052 46.0792 267.065 42.1994 266.68C38.3504 266.287 35.083 265.158 32.3969 263.294C29.7026 261.398 27.8212 258.457 26.7528 254.47C25.7507 250.73 25.9629 247.194 27.3894 243.864C28.816 240.533 31.0882 237.638 34.2061 235.179C37.3548 232.712 40.9847 230.928 45.0957 229.827C48.4648 228.924 51.8975 228.567 55.3937 228.757C58.8899 228.946 62.1281 229.719 65.1083 231.073C68.1194 232.42 70.5552 234.401 72.4155 237.017L66.8454 240.894C65.6436 239.129 63.9487 237.811 61.7606 236.94C59.5951 236.029 57.2117 235.541 54.6102 235.477C52.0005 235.381 49.4129 235.677 46.8474 236.364C43.9027 237.12 41.2842 238.352 38.9921 240.059C36.7225 241.727 35.0397 243.669 33.9437 245.884C32.8394 248.068 32.6061 250.35 33.2438 252.73C33.9892 255.512 35.2912 257.466 37.1498 258.591C39.031 259.677 41.3383 260.252 44.0717 260.314C46.805 260.377 49.8422 260.276 53.1833 260.01C57.5157 259.611 61.6621 259.693 65.6225 260.255C69.5747 260.786 72.968 262.013 75.8025 263.937C78.6288 265.83 80.5306 268.601 81.5079 272.248C82.5017 275.957 82.2895 279.492 80.8712 282.854C79.4447 286.185 77.157 289.084 74.0082 291.551C70.8904 294.009 67.245 295.798 63.0722 296.916ZM101.027 215.883L109.094 213.722L150.132 272.296L143.224 274.147L134.443 261.592L103.055 270.003L101.728 285.266L94.8197 287.117L101.027 215.883ZM103.68 262.878L130.293 255.747L107.197 222.777L103.68 262.878ZM159.429 269.805L154.601 201.528L159.331 200.261L190.301 243.146L195.588 190.546L200.317 189.279L230.32 250.81L223.69 252.586L200.788 205.502L195.795 255.489L191.622 256.607L162.305 215.813L166.013 268.041L159.429 269.805ZM241.473 247.822L224.08 182.911L263.582 172.327L265.322 178.818L232.31 187.663L237.776 208.064L265.085 200.746L266.824 207.237L239.516 214.555L246.224 239.591L279.236 230.746L280.975 237.237L241.473 247.822ZM322.895 156.434L324.634 162.925L302.379 168.888L318.033 227.307L311.542 229.047L295.888 170.628L273.68 176.578L271.94 170.087L322.895 156.434ZM380.056 211.98C375.667 213.156 371.308 213.397 366.981 212.701C362.645 211.974 358.595 210.459 354.83 208.155C351.065 205.851 347.806 202.898 345.052 199.296C342.29 195.663 340.287 191.528 339.045 186.892C337.803 182.255 337.474 177.689 338.058 173.193C338.634 168.665 339.976 164.463 342.084 160.585C344.192 156.707 346.946 153.385 350.346 150.619C353.738 147.822 357.628 145.835 362.017 144.659C366.437 143.475 370.815 143.246 375.151 143.973C379.478 144.668 383.524 146.168 387.289 148.472C391.054 150.776 394.302 153.749 397.033 157.39C399.787 160.992 401.786 165.111 403.028 169.748C404.27 174.384 404.603 178.966 404.028 183.493C403.474 187.981 402.144 192.164 400.035 196.042C397.927 199.92 395.177 203.257 391.786 206.055C388.386 208.821 384.476 210.796 380.056 211.98ZM378.316 205.489C381.871 204.537 384.988 202.94 387.667 200.698C390.369 198.417 392.543 195.714 394.191 192.589C395.869 189.456 396.918 186.077 397.338 182.453C397.79 178.821 397.522 175.165 396.537 171.487C395.543 167.778 393.943 164.463 391.736 161.543C389.52 158.592 386.907 156.194 383.895 154.351C380.906 152.469 377.675 151.23 374.203 150.637C370.762 150.035 367.28 150.206 363.756 151.15C360.202 152.103 357.074 153.719 354.372 156C351.693 158.242 349.514 160.93 347.836 164.063C346.189 167.188 345.139 170.566 344.688 174.199C344.268 177.823 344.55 181.474 345.536 185.153C346.538 188.893 348.143 192.223 350.35 195.143C352.557 198.063 355.155 200.465 358.144 202.347C361.164 204.222 364.394 205.46 367.835 206.062C371.299 206.624 374.793 206.434 378.316 205.489ZM441.122 194.326L400.176 135.727L407.038 133.888L442.83 185.122L448.303 122.831L455.165 120.992L448.958 192.226L441.122 194.326ZM484.62 113.1L492.687 110.938L533.726 169.513L526.817 171.364L518.037 158.809L486.648 167.219L485.321 182.483L478.413 184.334L484.62 113.1ZM487.273 160.094L513.886 152.964L490.79 119.994L487.273 160.094ZM485.711 107.341L485.842 92.9946L492.333 91.2554L490.069 106.174L485.711 107.341ZM565.299 161.053L547.907 96.1423L554.398 94.4031L570.051 152.822L599.863 144.834L601.603 151.325L565.299 161.053ZM611.845 148.581L594.452 83.6705L633.955 73.0858L635.694 79.5769L602.682 88.4223L608.149 108.823L635.457 101.505L637.197 107.996L609.888 115.314L616.596 140.35L649.608 131.505L651.347 137.996L611.845 148.581ZM610.797 73.8247L610.928 59.4779L617.419 57.7386L615.155 72.6569L610.797 73.8247ZM693.267 57.1931L695.006 63.6841L672.751 69.6473L688.405 128.067L681.914 129.806L666.26 71.3866L644.052 77.3374L642.313 70.8463L693.267 57.1931ZM724.32 48.8724L732.388 46.7107L773.426 105.285L766.518 107.136L757.737 94.581L726.349 102.992L725.022 118.255L718.113 120.106L724.32 48.8724ZM726.974 95.8669L753.587 88.736L730.491 55.7663L726.974 95.8669Z" fill="#32373B"/>
<path d="M36.7524 339.946L793.555 137.161" stroke="#32373B" stroke-width="6"/>
</svg>
