<svg width="390" height="379" viewBox="0 0 390 379" fill="none" xmlns="http://www.w3.org/2000/svg">
<path d="M-206.436 204.717L550.367 1.93186" stroke="#32373B" stroke-width="4"/>
<path d="M42.2496 214.518C39.9417 215.136 37.6093 215.375 35.2524 215.233C32.916 215.086 30.7648 214.558 28.7986 213.65C26.8324 212.741 25.2711 211.448 24.1148 209.77L27.7581 207.17C28.5538 208.326 29.6734 209.208 31.1171 209.815C32.5758 210.396 34.1751 210.718 35.9149 210.782C37.6753 210.84 39.4004 210.643 41.0901 210.191C43.0683 209.66 44.8243 208.837 46.3579 207.719C47.8916 206.601 49.0265 205.314 49.7627 203.858C50.4934 202.381 50.6434 200.839 50.2127 199.232C49.7765 197.604 48.8715 196.411 47.4978 195.653C46.1241 194.894 44.4917 194.448 42.6006 194.315C40.7246 194.155 38.8049 194.161 36.8413 194.334C33.7566 194.608 30.9209 194.617 28.3344 194.361C25.7684 194.098 23.5901 193.346 21.7994 192.103C20.0032 190.84 18.7489 188.879 18.0367 186.22C17.3686 183.727 17.51 181.37 18.4611 179.15C19.4121 176.929 20.9269 174.999 23.0055 173.36C25.1047 171.716 27.5246 170.526 30.2653 169.792C32.5114 169.19 34.7998 168.952 37.1306 169.078C39.4614 169.205 41.6202 169.72 43.607 170.623C45.6144 171.521 47.2383 172.841 48.4785 174.585L44.7651 177.17C43.9639 175.994 42.8339 175.115 41.3752 174.534C39.9315 173.927 38.3426 173.602 36.6083 173.558C34.8685 173.494 33.1434 173.692 31.4331 174.15C29.4699 174.654 27.7243 175.475 26.1962 176.613C24.6831 177.725 23.5613 179.02 22.8306 180.497C22.0944 181.953 21.9389 183.474 22.364 185.061C22.861 186.915 23.7289 188.218 24.968 188.968C26.2221 189.692 27.7603 190.075 29.5826 190.117C31.4048 190.159 33.4296 190.091 35.657 189.914C38.5452 189.648 41.3095 189.702 43.9498 190.077C46.5846 190.431 48.8468 191.25 50.7365 192.532C52.6207 193.794 53.8885 195.641 54.54 198.073C55.2026 200.545 55.0612 202.902 54.1156 205.143C53.1646 207.364 51.6395 209.296 49.5403 210.941C47.4617 212.58 45.0315 213.772 42.2496 214.518ZM67.5525 160.496L72.9308 159.055L100.29 198.105L95.6842 199.339L89.8304 190.969L68.9046 196.576L68.0201 206.751L63.4146 207.985L67.5525 160.496ZM69.3215 191.826L87.0636 187.072L71.6662 165.092L69.3215 191.826ZM106.488 196.444L103.269 150.926L106.422 150.081L127.069 178.672L130.593 143.605L133.746 142.76L153.748 183.78L149.328 184.965L134.06 153.575L130.732 186.9L127.95 187.645L108.405 160.449L110.877 195.268L106.488 196.444ZM161.183 181.788L149.588 138.515L175.923 131.458L177.083 135.786L155.075 141.683L158.719 155.283L176.925 150.405L178.084 154.732L159.879 159.61L164.351 176.302L186.359 170.405L187.518 174.732L161.183 181.788ZM215.465 120.863L216.624 125.191L201.788 129.166L212.223 168.112L207.896 169.272L197.46 130.326L182.655 134.293L181.495 129.965L215.465 120.863ZM253.572 157.894C250.646 158.678 247.74 158.838 244.855 158.375C241.965 157.89 239.265 156.88 236.755 155.344C234.245 153.808 232.072 151.839 230.236 149.438C228.395 147.016 227.06 144.26 226.231 141.169C225.403 138.078 225.184 135.033 225.573 132.036C225.957 129.017 226.852 126.216 228.257 123.631C229.663 121.045 231.499 118.831 233.765 116.987C236.027 115.122 238.62 113.797 241.546 113.013C244.493 112.224 247.412 112.071 250.302 112.556C253.187 113.019 255.884 114.019 258.394 115.555C260.904 117.092 263.069 119.073 264.89 121.501C266.726 123.902 268.059 126.648 268.887 129.739C269.715 132.83 269.937 135.885 269.553 138.903C269.184 141.895 268.297 144.684 266.892 147.269C265.486 149.854 263.653 152.079 261.392 153.944C259.125 155.788 256.519 157.105 253.572 157.894ZM252.412 153.567C254.782 152.932 256.86 151.867 258.646 150.373C260.447 148.852 261.897 147.05 262.995 144.967C264.114 142.878 264.814 140.626 265.094 138.209C265.395 135.788 265.216 133.351 264.559 130.899C263.897 128.426 262.83 126.216 261.358 124.269C259.882 122.302 258.139 120.704 256.131 119.475C254.139 118.22 251.985 117.394 249.67 116.999C247.376 116.597 245.055 116.711 242.706 117.341C240.336 117.976 238.251 119.054 236.449 120.574C234.663 122.069 233.211 123.86 232.092 125.949C230.994 128.032 230.294 130.285 229.994 132.707C229.713 135.123 229.902 137.557 230.559 140.009C231.227 142.502 232.297 144.723 233.768 146.669C235.239 148.616 236.971 150.217 238.964 151.472C240.977 152.722 243.131 153.547 245.425 153.948C247.734 154.323 250.063 154.196 252.412 153.567ZM294.283 146.124L266.986 107.058L271.56 105.833L295.422 139.989L299.07 98.4613L303.645 97.2356L299.507 144.725L294.283 146.124ZM323.281 91.9739L328.66 90.5328L356.019 129.582L351.413 130.816L345.559 122.446L324.633 128.053L323.749 138.229L319.143 139.463L323.281 91.9739ZM325.05 123.304L342.792 118.55L327.395 96.5698L325.05 123.304ZM324.009 88.1349L324.096 78.5704L328.423 77.4108L326.914 87.3564L324.009 88.1349ZM142.022 266.639L130.427 223.365L134.755 222.206L145.19 261.152L165.065 255.826L166.225 260.154L142.022 266.639ZM173.053 258.324L161.458 215.051L187.793 207.994L188.952 212.322L166.945 218.219L170.589 231.819L188.795 226.941L189.954 231.268L171.748 236.146L176.221 252.837L198.228 246.94L199.388 251.268L173.053 258.324ZM172.354 208.487L172.442 198.922L176.769 197.763L175.26 207.708L172.354 208.487ZM227.334 197.399L228.494 201.726L213.657 205.702L224.093 244.648L219.765 245.808L209.33 206.861L194.524 210.829L193.365 206.501L227.334 197.399ZM248.037 191.852L253.415 190.411L280.774 229.46L276.168 230.694L270.314 222.324L249.389 227.931L248.504 238.107L243.899 239.341L248.037 191.852ZM249.806 223.182L267.548 218.428L252.15 196.448L249.806 223.182Z" fill="#32373B"/>
<path d="M-160.366 376.651L596.436 173.867" stroke="#32373B" stroke-width="4"/>
</svg>
