<svg width="326" height="131" viewBox="0 0 326 131" fill="none" xmlns="http://www.w3.org/2000/svg">
<path d="M14.2784 119.372L7.75614 95.0307L4.85836 95.8071L4.90641 92.8955L9.73604 91.6014L16.983 118.647L14.2784 119.372ZM26.8605 116.001L30.0605 104.066C28.8334 104.947 27.5114 105.473 26.0944 105.646C24.674 105.806 23.2936 105.651 21.9532 105.182C20.6094 104.7 19.4258 103.941 18.4025 102.903C17.3886 101.85 16.6746 100.55 16.2605 99.005C15.9292 97.7686 15.8487 96.5409 16.019 95.322C16.2022 94.0996 16.5955 92.9658 17.1989 91.9207C17.7989 90.8627 18.5776 89.957 19.5352 89.2034C20.5023 88.4336 21.6104 87.8813 22.8597 87.5465C24.5082 87.1048 26.119 87.1149 27.6922 87.5768C29.2748 88.0224 30.6547 88.8191 31.8318 89.9669C33.0219 91.1112 33.8395 92.514 34.2847 94.1754C34.5366 95.1156 34.6381 95.958 34.5892 96.7027C34.5497 97.4311 34.4167 98.2743 34.1902 99.2322L29.9708 115.167L26.8605 116.001ZM26.9415 102.934C28.165 102.607 29.1756 102.025 29.9733 101.19C30.7805 100.339 31.3316 99.3563 31.6266 98.2419C31.9216 97.1276 31.9207 96.0167 31.6239 94.9091C31.2995 93.6985 30.7134 92.696 29.8656 91.9017C29.0272 91.0911 28.0509 90.5382 26.9366 90.2433C25.8188 89.9354 24.6997 89.9316 23.5792 90.2318C22.3428 90.5631 21.321 91.1544 20.5139 92.0056C19.7196 92.8534 19.1766 93.8409 18.8851 94.9681C18.603 96.079 18.6121 97.1947 18.9123 98.3151C19.2229 99.4743 19.7909 100.461 20.6164 101.275C21.4385 102.076 22.4019 102.632 23.5068 102.944C24.6246 103.252 25.7695 103.248 26.9415 102.934ZM50.6937 110.153C49.1096 110.577 47.5641 110.605 46.0572 110.236C44.5632 109.863 43.2676 109.175 42.1705 108.171C41.0733 107.168 40.3263 105.925 39.9295 104.444C39.543 103.002 39.5902 101.581 40.0713 100.182C40.5488 98.7707 41.3371 97.5656 42.4361 96.5672C41.2179 96.2448 40.1277 95.6535 39.1656 94.7932C38.2 93.92 37.5481 92.8524 37.2099 91.5902C36.8476 90.2379 36.8722 88.9131 37.2838 87.6157C37.7048 86.302 38.4261 85.1562 39.4479 84.1784C40.4791 83.1844 41.7223 82.4923 43.1776 82.1024C44.633 81.7124 46.0492 81.6918 47.4264 82.0406C48.8131 82.373 50.0107 83.0046 51.0192 83.9353C52.0372 84.8496 52.7274 85.9829 53.0898 87.3352C53.4279 88.5974 53.3972 89.8479 52.9976 91.0869C52.6074 92.3096 51.959 93.3668 51.0522 94.2585C52.529 94.5668 53.8206 95.2145 54.9272 96.2018C56.0432 97.1727 56.7944 98.3794 57.1809 99.8218C57.5743 101.29 57.5421 102.741 57.0844 104.175C56.636 105.593 55.8581 106.837 54.7505 107.906C53.643 108.976 52.2907 109.725 50.6937 110.153ZM49.9691 107.448C51.038 107.162 51.9401 106.665 52.6753 105.957C53.4105 105.249 53.9287 104.427 54.2299 103.491C54.5277 102.541 54.5454 101.577 54.2831 100.598C54.0209 99.6195 53.5252 98.7999 52.7961 98.1394C52.0669 97.4789 51.2071 97.026 50.2165 96.7807C49.2259 96.5354 48.1962 96.556 47.1272 96.8424C46.084 97.1219 45.1884 97.6173 44.4403 98.3285C43.7051 99.0362 43.1804 99.8601 42.8663 100.8C42.5651 101.737 42.5457 102.694 42.8079 103.673C43.0702 104.652 43.5676 105.478 44.3002 106.151C45.0422 106.808 45.9085 107.259 46.8991 107.505C47.9025 107.747 48.9259 107.728 49.9691 107.448ZM46.4025 94.1378C47.3427 93.8859 48.1375 93.4521 48.7869 92.8363C49.4329 92.2077 49.8864 91.4789 50.1473 90.6497C50.4212 89.8171 50.4425 88.9694 50.2113 88.1065C49.9801 87.2436 49.5395 86.5266 48.8895 85.9553C48.2489 85.3678 47.4935 84.9697 46.6232 84.7612C45.7495 84.5398 44.8425 84.555 43.9023 84.807C42.975 85.0554 42.182 85.4957 41.5231 86.1278C40.8737 86.7435 40.412 87.4676 40.1382 88.3002C39.8738 89.1165 39.8572 89.956 40.0884 90.8189C40.3196 91.6818 40.7555 92.4071 41.3961 92.9946C42.0495 93.5787 42.8131 93.9815 43.6868 94.2029C44.57 94.408 45.4752 94.3863 46.4025 94.1378ZM73.9488 103.383L71.9144 95.7912L60.246 98.9177L59.511 96.1745L66.0064 76.5238L69.4064 75.6127L73.8943 92.3619L76.7342 91.601L77.4588 94.3056L74.619 95.0665L76.6533 102.659L73.9488 103.383ZM62.7179 95.3152L71.1897 93.0866L67.6791 80.2167L62.7179 95.3152Z" fill="#32373B"/>
<circle cx="102.804" cy="81.1577" r="10" transform="rotate(-15 102.804 81.1577)" fill="#C55B45"/>
<path d="M135.019 87.0196L128.497 62.6783L125.599 63.4548L125.647 60.5431L130.477 59.249L137.724 86.2949L135.019 87.0196ZM147.601 83.6483L150.801 71.7134C149.574 72.5943 148.252 73.1211 146.835 73.2937C145.415 73.4534 144.034 73.2988 142.694 72.8297C141.35 72.3478 140.166 71.5882 139.143 70.5511C138.129 69.4976 137.415 68.1981 137.001 66.6526C136.67 65.4162 136.589 64.1886 136.76 62.9696C136.943 61.7472 137.336 60.6135 137.94 59.5684C138.54 58.5104 139.318 57.6046 140.276 56.8511C141.243 56.0812 142.351 55.5289 143.6 55.1942C145.249 54.7525 146.86 54.7626 148.433 55.2245C150.016 55.6701 151.395 56.4667 152.573 57.6145C153.763 58.7588 154.58 60.1617 155.025 61.8231C155.277 62.7632 155.379 63.6057 155.33 64.3504C155.29 65.0787 155.157 65.9219 154.931 66.8798L150.711 82.8149L147.601 83.6483ZM147.682 70.5821C148.906 70.2542 149.916 69.6729 150.714 68.8379C151.521 67.9867 152.072 67.0039 152.367 65.8896C152.662 64.7753 152.661 63.6643 152.365 62.5567C152.04 61.3461 151.454 60.3436 150.606 59.5493C149.768 58.7387 148.792 58.1859 147.677 57.8909C146.56 57.5831 145.44 57.5792 144.32 57.8795C143.084 58.2108 142.062 58.802 141.255 59.6533C140.46 60.5011 139.917 61.4886 139.626 62.6158C139.344 63.7266 139.353 64.8423 139.653 65.9628C139.964 67.1219 140.532 68.1085 141.357 68.9226C142.179 69.7238 143.143 70.28 144.248 70.5914C145.365 70.8992 146.51 70.8961 147.682 70.5821ZM171.434 77.8005C169.85 78.225 168.305 78.2526 166.798 77.8834C165.304 77.5107 164.008 76.8225 162.911 75.819C161.814 74.8154 161.067 73.5731 160.67 72.092C160.284 70.6495 160.331 69.2289 160.812 67.8301C161.29 66.4184 162.078 65.2133 163.177 64.2148C161.959 63.8925 160.868 63.3012 159.906 62.4408C158.941 61.5677 158.289 60.5 157.951 59.2379C157.588 57.8856 157.613 56.5607 158.024 55.2633C158.445 53.9496 159.167 52.8039 160.189 51.8261C161.22 50.832 162.463 50.14 163.918 49.75C165.374 49.3601 166.79 49.3395 168.167 49.6882C169.554 50.0207 170.751 50.6522 171.76 51.5829C172.778 52.4973 173.468 53.6306 173.83 54.9829C174.169 56.245 174.138 57.4956 173.738 58.7346C173.348 59.9572 172.7 61.0144 171.793 61.9061C173.27 62.2144 174.561 62.8622 175.668 63.8494C176.784 64.8203 177.535 66.027 177.922 67.4695C178.315 68.9377 178.283 70.3888 177.825 71.8228C177.377 73.2405 176.599 74.4842 175.491 75.554C174.384 76.6237 173.031 77.3726 171.434 77.8005ZM170.71 75.0959C171.779 74.8095 172.681 74.3124 173.416 73.6047C174.151 72.8969 174.669 72.0748 174.971 71.1383C175.268 70.1888 175.286 69.2247 175.024 68.2459C174.762 67.2671 174.266 66.4475 173.537 65.787C172.808 65.1266 171.948 64.6737 170.957 64.4284C169.967 64.1831 168.937 64.2036 167.868 64.49C166.825 64.7696 165.929 65.2649 165.181 65.9761C164.446 66.6838 163.921 67.5077 163.607 68.4477C163.306 69.3842 163.286 70.3419 163.549 71.3207C163.811 72.2995 164.308 73.1256 165.041 73.7989C165.783 74.4559 166.649 74.9071 167.64 75.1524C168.643 75.3943 169.667 75.3754 170.71 75.0959ZM167.143 61.7855C168.083 61.5335 168.878 61.0997 169.528 60.484C170.174 59.8554 170.627 59.1265 170.888 58.2974C171.162 57.4648 171.183 56.6171 170.952 55.7542C170.721 54.8913 170.28 54.1742 169.63 53.603C168.99 53.0154 168.234 52.6174 167.364 52.4088C166.49 52.1874 165.583 52.2027 164.643 52.4546C163.716 52.7031 162.923 53.1433 162.264 53.7754C161.614 54.3911 161.153 55.1153 160.879 55.9479C160.615 56.7641 160.598 57.6037 160.829 58.4666C161.06 59.3295 161.496 60.0547 162.137 60.6423C162.79 61.2264 163.554 61.6291 164.428 61.8505C165.311 62.0556 166.216 62.0339 167.143 61.7855ZM191.772 72.3511C190.188 72.7756 188.642 72.8032 187.135 72.434C185.641 72.0613 184.346 71.3732 183.248 70.3696C182.151 69.366 181.404 68.1237 181.007 66.6426C180.621 65.2002 180.668 63.7795 181.149 62.3807C181.627 60.969 182.415 59.7639 183.514 58.7655C182.296 58.4431 181.206 57.8518 180.244 56.9915C179.278 56.1183 178.626 55.0507 178.288 53.7885C177.926 52.4362 177.95 51.1114 178.362 49.814C178.783 48.5002 179.504 47.3545 180.526 46.3767C181.557 45.3826 182.8 44.6906 184.256 44.3007C185.711 43.9107 187.127 43.8901 188.504 44.2389C189.891 44.5713 191.089 45.2029 192.097 46.1336C193.115 47.0479 193.805 48.1812 194.168 49.5335C194.506 50.7957 194.475 52.0462 194.076 53.2852C193.685 54.5079 193.037 55.565 192.13 56.4568C193.607 56.7651 194.899 57.4128 196.005 58.4001C197.121 59.371 197.872 60.5777 198.259 62.0201C198.652 63.4883 198.62 64.9394 198.162 66.3735C197.714 67.7911 196.936 69.0349 195.829 70.1046C194.721 71.1744 193.369 71.9232 191.772 72.3511ZM191.047 69.6466C192.116 69.3601 193.018 68.863 193.753 68.1553C194.489 67.4476 195.007 66.6254 195.308 65.6889C195.606 64.7395 195.623 63.7754 195.361 62.7966C195.099 61.8178 194.603 60.9981 193.874 60.3377C193.145 59.6772 192.285 59.2243 191.295 58.979C190.304 58.7337 189.274 58.7543 188.205 59.0407C187.162 59.3202 186.266 59.8156 185.518 60.5268C184.783 61.2345 184.258 62.0584 183.944 62.9983C183.643 63.9349 183.624 64.8925 183.886 65.8714C184.148 66.8502 184.646 67.6762 185.378 68.3496C186.12 69.0066 186.986 69.4577 187.977 69.7031C188.981 69.9449 190.004 69.9261 191.047 69.6466ZM187.481 56.3361C188.421 56.0842 189.215 55.6504 189.865 55.0346C190.511 54.406 190.964 53.6771 191.225 52.848C191.499 52.0154 191.52 51.1677 191.289 50.3048C191.058 49.4419 190.617 48.7248 189.967 48.1536C189.327 47.5661 188.571 47.168 187.701 46.9595C186.827 46.7381 185.92 46.7533 184.98 47.0053C184.053 47.2537 183.26 47.694 182.601 48.326C181.952 48.9418 181.49 49.6659 181.216 50.4985C180.952 51.3148 180.935 52.1543 181.166 53.0172C181.398 53.8801 181.833 54.6054 182.474 55.1929C183.127 55.777 183.891 56.1798 184.765 56.4012C185.648 56.6063 186.553 56.5846 187.481 56.3361Z" fill="#32373B"/>
<circle cx="222.579" cy="49.0641" r="10" transform="rotate(-15 222.579 49.0641)" fill="#C55B45"/>
<path d="M254.794 54.9261L248.272 30.5847L245.374 31.3612L245.422 28.4495L250.252 27.1554L257.499 54.2014L254.794 54.9261ZM267.376 51.5547L270.576 39.6198C269.349 40.5007 268.027 41.0275 266.61 41.2001C265.19 41.3599 263.809 41.2052 262.469 40.7362C261.125 40.2542 259.941 39.4947 258.918 38.4575C257.904 37.404 257.19 36.1045 256.776 34.5591C256.445 33.3227 256.364 32.095 256.535 30.8761C256.718 29.6537 257.111 28.5199 257.715 27.4748C258.314 26.4168 259.093 25.511 260.051 24.7575C261.018 23.9877 262.126 23.4354 263.375 23.1006C265.024 22.6589 266.635 22.669 268.208 23.1309C269.79 23.5765 271.17 24.3732 272.347 25.5209C273.538 26.6653 274.355 28.0681 274.8 29.7295C275.052 30.6697 275.154 31.5121 275.105 32.2568C275.065 32.9852 274.932 33.8283 274.706 34.7862L270.486 50.7213L267.376 51.5547ZM267.457 38.4885C268.681 38.1607 269.691 37.5793 270.489 36.7444C271.296 35.8931 271.847 34.9103 272.142 33.796C272.437 32.6817 272.436 31.5708 272.14 30.4632C271.815 29.2525 271.229 28.2501 270.381 27.4558C269.543 26.6451 268.567 26.0923 267.452 25.7973C266.334 25.4895 265.215 25.4857 264.095 25.7859C262.858 26.1172 261.837 26.7085 261.029 27.5597C260.235 28.4075 259.692 29.395 259.401 30.5222C259.119 31.6331 259.128 32.7487 259.428 33.8692C259.739 35.0283 260.307 36.0149 261.132 36.829C261.954 37.6302 262.918 38.1865 264.022 38.4978C265.14 38.8056 266.285 38.8026 267.457 38.4885ZM287.713 46.1053L290.913 34.1704C289.686 35.0514 288.364 35.5782 286.947 35.7508C285.527 35.9105 284.147 35.7559 282.806 35.2868C281.462 34.8049 280.279 34.0453 279.255 33.0082C278.241 31.9547 277.527 30.6552 277.113 29.1097C276.782 27.8733 276.702 26.6457 276.872 25.4267C277.055 24.2043 277.448 23.0705 278.052 22.0254C278.652 20.9674 279.431 20.0617 280.388 19.3082C281.355 18.5383 282.463 17.986 283.713 17.6513C285.361 17.2096 286.972 17.2197 288.545 17.6816C290.128 18.1271 291.508 18.9238 292.685 20.0716C293.875 21.2159 294.692 22.6188 295.138 24.2801C295.389 25.2203 295.491 26.0627 295.442 26.8075C295.403 27.5358 295.27 28.379 295.043 29.3369L290.824 45.2719L287.713 46.1053ZM287.794 33.0392C289.018 32.7113 290.028 32.1299 290.826 31.295C291.633 30.4438 292.185 29.461 292.479 28.3467C292.774 27.2324 292.774 26.1214 292.477 25.0138C292.152 23.8032 291.566 22.8007 290.718 22.0064C289.88 21.1958 288.904 20.643 287.789 20.348C286.672 20.0401 285.553 20.0363 284.432 20.3365C283.196 20.6678 282.174 21.2591 281.367 22.1104C280.572 22.9582 280.03 23.9457 279.738 25.0729C279.456 26.1837 279.465 27.2994 279.765 28.4199C280.076 29.579 280.644 30.5656 281.469 31.3797C282.291 32.1809 283.255 32.7371 284.36 33.0484C285.477 33.3563 286.622 33.3532 287.794 33.0392ZM302.796 42.064L302.154 39.6685C302.948 38.4067 303.821 37.0272 304.772 35.5298C305.72 34.0197 306.647 32.4807 307.552 30.9131C308.467 29.3291 309.277 27.7937 309.983 26.307C310.685 24.8074 311.201 23.4339 311.529 22.1864C311.867 20.9226 311.923 19.8721 311.699 19.035C311.426 18.0176 310.927 17.1576 310.2 16.455C309.483 15.7361 308.639 15.2377 307.667 14.9597C306.705 14.6654 305.715 14.6546 304.697 14.9272C303.68 15.1998 302.815 15.7076 302.103 16.4505C301.401 17.1771 300.912 18.0327 300.638 19.0173C300.36 19.989 300.357 20.9836 300.63 22.0011L297.925 22.7258C297.511 21.1803 297.51 19.6828 297.922 18.2334C298.347 16.7805 299.086 15.5197 300.139 14.4508C301.188 13.3691 302.466 12.6264 303.973 12.2226C305.479 11.8189 306.951 11.8248 308.388 12.2405C309.837 12.6528 311.096 13.3852 312.165 14.4377C313.247 15.4868 313.993 16.7777 314.404 18.3103C314.649 19.2247 314.673 20.2948 314.477 21.5207C314.29 22.7302 313.942 24.0314 313.432 25.4243C312.918 26.8042 312.305 28.2247 311.592 29.6856C310.879 31.1466 310.114 32.5938 309.298 34.0274C308.477 35.4481 307.672 36.7958 306.882 38.0705L319.245 34.7576L319.97 37.4622L302.796 42.064Z" fill="#32373B"/>
</svg>
