<svg width="261" height="104" viewBox="0 0 261 104" fill="none" xmlns="http://www.w3.org/2000/svg">
<path d="M11.3192 95.0595L6.10139 75.5864L3.78316 76.2076L3.8216 73.8782L7.68531 72.843L13.4829 94.4797L11.3192 95.0595ZM21.3849 92.3624L23.9449 82.8144C22.9632 83.5192 21.9056 83.9406 20.772 84.0787C19.6357 84.2065 18.5314 84.0828 17.459 83.7075C16.384 83.322 15.4371 82.7143 14.6184 81.8846C13.8073 81.0418 13.2362 80.0022 12.9049 78.7659C12.6398 77.7767 12.5754 76.7946 12.7117 75.8195C12.8583 74.8415 13.1729 73.9345 13.6556 73.0984C14.1356 72.252 14.7586 71.5274 15.5247 70.9246C16.2983 70.3087 17.1848 69.8669 18.1842 69.5991C19.503 69.2457 20.7917 69.2538 22.0502 69.6233C23.3163 69.9798 24.4202 70.6171 25.3619 71.5354C26.314 72.4508 26.9681 73.5731 27.3242 74.9022C27.5257 75.6543 27.6069 76.3283 27.5678 76.9241C27.5362 77.5068 27.4298 78.1813 27.2487 78.9476L23.8731 91.6956L21.3849 92.3624ZM21.4496 81.9094C22.4284 81.6471 23.2369 81.182 23.8752 80.5141C24.5209 79.8331 24.9618 79.0469 25.1977 78.1554C25.4337 77.264 25.433 76.3752 25.1956 75.4891C24.9361 74.5206 24.4672 73.7187 23.789 73.0832C23.1183 72.4347 22.3372 71.9925 21.4457 71.7565C20.5515 71.5102 19.6562 71.5071 18.7598 71.7473C17.7707 72.0124 16.9533 72.4854 16.3076 73.1664C15.6721 73.8446 15.2378 74.6346 15.0046 75.5364C14.7789 76.4251 14.7861 77.3176 15.0263 78.214C15.2748 79.1413 15.7292 79.9305 16.3896 80.5818C17.0472 81.2228 17.818 81.6678 18.7019 81.9168C19.5961 82.1631 20.512 82.1606 21.4496 81.9094ZM40.4515 87.6842C39.1842 88.0237 37.9478 88.0458 36.7422 87.7504C35.547 87.4523 34.5105 86.9018 33.6328 86.0989C32.7551 85.2961 32.1575 84.3022 31.8401 83.1173C31.5309 81.9634 31.5687 80.8269 31.9535 79.7078C32.3355 78.5784 32.9662 77.6144 33.8454 76.8156C32.8708 76.5577 31.9986 76.0847 31.2289 75.3964C30.4565 74.6979 29.935 73.8438 29.6644 72.834C29.3745 71.7522 29.3942 70.6923 29.7235 69.6544C30.0603 68.6034 30.6374 67.6868 31.4548 66.9046C32.2797 66.1093 33.2743 65.5557 34.4386 65.2438C35.6028 64.9318 36.7359 64.9153 37.8376 65.1943C38.9469 65.4603 39.905 65.9655 40.7119 66.7101C41.5263 67.4416 42.0784 68.3482 42.3683 69.4301C42.6388 70.4398 42.6143 71.4402 42.2946 72.4314C41.9824 73.4095 41.4636 74.2553 40.7382 74.9687C41.9197 75.2153 42.953 75.7335 43.8382 76.5233C44.731 77.3 45.332 78.2654 45.6412 79.4193C45.9559 80.5939 45.9302 81.7548 45.564 82.902C45.2053 84.0361 44.5829 85.0311 43.6969 85.8869C42.8109 86.7427 41.7291 87.3418 40.4515 87.6842ZM39.8717 85.5205C40.7269 85.2913 41.4485 84.8937 42.0367 84.3275C42.6249 83.7613 43.0394 83.1036 43.2804 82.3544C43.5186 81.5948 43.5328 80.8235 43.323 80.0405C43.1132 79.2575 42.7166 78.6017 42.1333 78.0734C41.55 77.545 40.8622 77.1827 40.0697 76.9864C39.2772 76.7902 38.4534 76.8066 37.5982 77.0358C36.7637 77.2594 36.0472 77.6557 35.4487 78.2246C34.8605 78.7908 34.4408 79.4499 34.1896 80.2019C33.9486 80.9511 33.933 81.7173 34.1428 82.5003C34.3526 83.2834 34.7506 83.9442 35.3366 84.4829C35.9302 85.0085 36.6233 85.3694 37.4157 85.5657C38.2185 85.7592 39.0372 85.7441 39.8717 85.5205ZM37.0185 74.8721C37.7706 74.6706 38.4065 74.3235 38.926 73.8309C39.4428 73.328 39.8056 72.7449 40.0143 72.0816C40.2334 71.4156 40.2505 70.7374 40.0655 70.0471C39.8805 69.3568 39.5281 68.7831 39.0081 68.3261C38.4956 67.8561 37.8913 67.5376 37.195 67.3708C36.496 67.1937 35.7705 67.2059 35.0183 67.4074C34.2765 67.6062 33.642 67.9584 33.115 68.4641C32.5954 68.9567 32.2261 69.536 32.007 70.202C31.7955 70.855 31.7822 71.5267 31.9672 72.217C32.1522 72.9073 32.5009 73.4875 33.0133 73.9576C33.5361 74.4249 34.1469 74.7471 34.8459 74.9242C35.5525 75.0882 36.2767 75.0709 37.0185 74.8721ZM59.0555 82.2686L57.428 76.1948L48.0933 78.696L47.5053 76.5015L52.7016 60.7809L55.4216 60.0521L59.0119 73.4514L61.2838 72.8426L61.8636 75.0063L59.5917 75.6151L61.2191 81.6888L59.0555 82.2686ZM50.0708 75.814L56.8483 74.0311L54.0398 63.7352L50.0708 75.814Z" fill="#32373B"/>
<circle cx="82.1915" cy="64.6812" r="8" transform="rotate(-15 82.1915 64.6812)" fill="#C55B45"/>
<path d="M107.912 69.1776L102.694 49.7046L100.376 50.3257L100.414 47.9964L104.278 46.9611L110.075 68.5979L107.912 69.1776ZM117.977 66.4805L120.537 56.9326C119.556 57.6374 118.498 58.0588 117.365 58.1969C116.228 58.3247 115.124 58.2009 114.052 57.8257C112.976 57.4401 112.03 56.8325 111.211 56.0028C110.4 55.16 109.829 54.1204 109.497 52.884C109.232 51.8949 109.168 50.9128 109.304 49.9376C109.451 48.9597 109.765 48.0527 110.248 47.2166C110.728 46.3702 111.351 45.6456 112.117 45.0428C112.891 44.4269 113.777 43.9851 114.777 43.7173C116.096 43.3639 117.384 43.372 118.643 43.7415C119.909 44.098 121.013 44.7353 121.954 45.6535C122.907 46.569 123.561 47.6913 123.917 49.0204C124.118 49.7725 124.199 50.4465 124.16 51.0422C124.129 51.6249 124.022 52.2994 123.841 53.0658L120.466 65.8138L117.977 66.4805ZM118.042 56.0276C119.021 55.7653 119.829 55.3002 120.468 54.6323C121.113 53.9513 121.554 53.165 121.79 52.2736C122.026 51.3821 122.026 50.4934 121.788 49.6073C121.529 48.6388 121.06 47.8368 120.381 47.2014C119.711 46.5529 118.93 46.1106 118.038 45.8746C117.144 45.6284 116.249 45.6253 115.352 45.8655C114.363 46.1305 113.546 46.6035 112.9 47.2845C112.265 47.9628 111.83 48.7528 111.597 49.6545C111.371 50.5432 111.379 51.4358 111.619 52.3321C111.867 53.2594 112.322 54.0487 112.982 54.7C113.64 55.3409 114.411 55.7859 115.294 56.035C116.189 56.2813 117.105 56.2788 118.042 56.0276ZM137.044 61.8023C135.777 62.1419 134.54 62.164 133.335 61.8686C132.14 61.5705 131.103 61.02 130.225 60.2171C129.348 59.4142 128.75 58.4204 128.433 57.2355C128.123 56.0815 128.161 54.945 128.546 53.826C128.928 52.6966 129.559 51.7325 130.438 50.9338C129.463 50.6759 128.591 50.2028 127.821 49.5146C127.049 48.8161 126.527 47.9619 126.257 46.9522C125.967 45.8704 125.987 44.8105 126.316 43.7726C126.653 42.7216 127.23 41.805 128.047 41.0228C128.872 40.2275 129.867 39.6739 131.031 39.3619C132.195 39.05 133.328 39.0335 134.43 39.3125C135.539 39.5785 136.498 40.0837 137.304 40.8283C138.119 41.5597 138.671 42.4664 138.961 43.5482C139.231 44.5579 139.207 45.5584 138.887 46.5496C138.575 47.5277 138.056 48.3734 137.331 49.0868C138.512 49.3335 139.546 49.8517 140.431 50.6415C141.324 51.4182 141.925 52.3835 142.234 53.5375C142.548 54.7121 142.523 55.8729 142.156 57.0202C141.798 58.1543 141.175 59.1493 140.289 60.0051C139.403 60.8609 138.322 61.46 137.044 61.8023ZM136.464 59.6386C137.319 59.4095 138.041 59.0118 138.629 58.4456C139.217 57.8795 139.632 57.2218 139.873 56.4725C140.111 55.713 140.125 54.9417 139.916 54.1587C139.706 53.3756 139.309 52.7199 138.726 52.1915C138.143 51.6632 137.455 51.3009 136.662 51.1046C135.87 50.9084 135.046 50.9248 134.191 51.154C133.356 51.3776 132.64 51.7739 132.041 52.3428C131.453 52.909 131.033 53.5681 130.782 54.3201C130.541 55.0693 130.526 55.8354 130.735 56.6185C130.945 57.4015 131.343 58.0624 131.929 58.6011C132.523 59.1267 133.216 59.4876 134.008 59.6838C134.811 59.8773 135.63 59.8623 136.464 59.6386ZM133.611 48.9903C134.363 48.7887 134.999 48.4417 135.519 47.9491C136.035 47.4462 136.398 46.8631 136.607 46.1998C136.826 45.5337 136.843 44.8556 136.658 44.1652C136.473 43.4749 136.121 42.9013 135.601 42.4443C135.088 41.9742 134.484 41.6558 133.788 41.489C133.089 41.3119 132.363 41.3241 131.611 41.5256C130.869 41.7244 130.235 42.0766 129.707 42.5822C129.188 43.0748 128.819 43.6541 128.6 44.3202C128.388 44.9732 128.375 45.6449 128.56 46.3352C128.745 47.0255 129.093 47.6057 129.606 48.0757C130.129 48.543 130.739 48.8652 131.438 49.0423C132.145 49.2064 132.869 49.1891 133.611 48.9903ZM153.314 57.4428C152.047 57.7824 150.81 57.8045 149.605 57.5091C148.409 57.211 147.373 56.6605 146.495 55.8576C145.617 55.0548 145.02 54.0609 144.702 52.876C144.393 51.7221 144.431 50.5855 144.816 49.4665C145.198 48.3371 145.829 47.3731 146.708 46.5743C145.733 46.3164 144.861 45.8434 144.091 45.1551C143.319 44.4566 142.797 43.6024 142.527 42.5927C142.237 41.5109 142.257 40.451 142.586 39.4131C142.923 38.3621 143.5 37.4455 144.317 36.6633C145.142 35.868 146.137 35.3144 147.301 35.0024C148.465 34.6905 149.598 34.674 150.7 34.953C151.809 35.219 152.767 35.7242 153.574 36.4688C154.389 37.2002 154.941 38.1069 155.231 39.1887C155.501 40.1984 155.477 41.1989 155.157 42.1901C154.845 43.1682 154.326 44.014 153.601 44.7273C154.782 44.974 155.815 45.4922 156.701 46.282C157.593 47.0587 158.194 48.0241 158.504 49.178C158.818 50.3526 158.793 51.5135 158.426 52.6607C158.068 53.7948 157.445 54.7898 156.559 55.6456C155.673 56.5014 154.591 57.1005 153.314 57.4428ZM152.734 55.2792C153.589 55.05 154.311 54.6524 154.899 54.0862C155.487 53.52 155.902 52.8623 156.143 52.113C156.381 51.3535 156.395 50.5822 156.185 49.7992C155.976 49.0161 155.579 48.3604 154.996 47.8321C154.412 47.3037 153.724 46.9414 152.932 46.7451C152.14 46.5489 151.316 46.5653 150.461 46.7945C149.626 47.0181 148.91 47.4144 148.311 47.9833C147.723 48.5495 147.303 49.2086 147.052 49.9606C146.811 50.7098 146.795 51.476 147.005 52.259C147.215 53.042 147.613 53.7029 148.199 54.2416C148.793 54.7672 149.486 55.1281 150.278 55.3244C151.081 55.5178 151.899 55.5028 152.734 55.2792ZM149.881 44.6308C150.633 44.4293 151.269 44.0822 151.788 43.5896C152.305 43.0867 152.668 42.5036 152.877 41.8403C153.096 41.1743 153.113 40.4961 152.928 39.8058C152.743 39.1154 152.39 38.5418 151.87 38.0848C151.358 37.6148 150.754 37.2963 150.057 37.1295C149.358 36.9524 148.633 36.9646 147.881 37.1661C147.139 37.3649 146.504 37.7171 145.977 38.2228C145.458 38.7153 145.088 39.2947 144.869 39.9607C144.658 40.6137 144.645 41.2854 144.83 41.9757C145.014 42.666 145.363 43.2462 145.876 43.7162C146.398 44.1835 147.009 44.5057 147.708 44.6829C148.415 44.8469 149.139 44.8296 149.881 44.6308Z" fill="#32373B"/>
<circle cx="177.818" cy="39.0581" r="8" transform="rotate(-15 177.818 39.0581)" fill="#C55B45"/>
<path d="M203.538 43.5544L198.321 24.0814L196.002 24.7025L196.041 22.3732L199.905 21.338L205.702 42.9747L203.538 43.5544ZM213.604 40.8574L216.164 31.3094C215.182 32.0142 214.125 32.4356 212.991 32.5737C211.855 32.7015 210.751 32.5778 209.678 32.2025C208.603 31.817 207.656 31.2093 206.838 30.3796C206.027 29.5368 205.455 28.4972 205.124 27.2608C204.859 26.2717 204.795 25.2896 204.931 24.3144C205.077 23.3365 205.392 22.4295 205.875 21.5934C206.355 20.747 206.978 20.0224 207.744 19.4196C208.518 18.8037 209.404 18.3619 210.403 18.0941C211.722 17.7407 213.011 17.7488 214.269 18.1183C215.536 18.4748 216.639 19.1121 217.581 20.0303C218.533 20.9458 219.187 22.0681 219.543 23.3972C219.745 24.1493 219.826 24.8233 219.787 25.419C219.755 26.0017 219.649 26.6763 219.468 27.4426L216.092 40.1906L213.604 40.8574ZM213.669 30.4044C214.648 30.1421 215.456 29.677 216.094 29.0091C216.74 28.3281 217.181 27.5419 217.417 26.6504C217.653 25.759 217.652 24.8702 217.415 23.9841C217.155 23.0156 216.686 22.2137 216.008 21.5782C215.337 20.9297 214.556 20.4875 213.665 20.2515C212.771 20.0052 211.875 20.0021 210.979 20.2423C209.99 20.5074 209.173 20.9804 208.527 21.6614C207.891 22.3396 207.457 23.1296 207.224 24.0314C206.998 24.9201 207.005 25.8126 207.246 26.709C207.494 27.6363 207.948 28.4255 208.609 29.0768C209.266 29.7178 210.037 30.1628 210.921 30.4118C211.815 30.6581 212.731 30.6556 213.669 30.4044ZM229.874 36.4979L232.434 26.9499C231.452 27.6547 230.395 28.0761 229.261 28.2142C228.125 28.342 227.02 28.2183 225.948 27.843C224.873 27.4575 223.926 26.8499 223.108 26.0201C222.296 25.1773 221.725 24.1378 221.394 22.9014C221.129 21.9123 221.064 20.9301 221.201 19.955C221.347 18.977 221.662 18.07 222.145 17.2339C222.625 16.3876 223.248 15.6629 224.014 15.0601C224.787 14.4442 225.674 14.0024 226.673 13.7346C227.992 13.3812 229.281 13.3893 230.539 13.7588C231.805 14.1153 232.909 14.7527 233.851 15.6709C234.803 16.5863 235.457 17.7086 235.813 19.0377C236.015 19.7899 236.096 20.4638 236.057 21.0596C236.025 21.6423 235.919 22.3168 235.738 23.0831L232.362 35.8312L229.874 36.4979ZM229.939 26.0449C230.917 25.7827 231.726 25.3176 232.364 24.6496C233.01 23.9686 233.451 23.1824 233.687 22.2909C233.923 21.3995 233.922 20.5107 233.685 19.6246C233.425 18.6561 232.956 17.8542 232.278 17.2187C231.607 16.5702 230.826 16.128 229.935 15.892C229.041 15.6457 228.145 15.6427 227.249 15.8828C226.26 16.1479 225.442 16.6209 224.797 17.3019C224.161 17.9801 223.727 18.7701 223.494 19.6719C223.268 20.5606 223.275 21.4531 223.515 22.3495C223.764 23.2768 224.218 24.0661 224.879 24.7173C225.536 25.3583 226.307 25.8033 227.191 26.0523C228.085 26.2986 229.001 26.2962 229.939 26.0449ZM241.94 33.2648L241.427 31.3484C242.062 30.339 242.76 29.2353 243.521 28.0375C244.279 26.8293 245.021 25.5982 245.745 24.3441C246.476 23.0769 247.125 21.8486 247.689 20.6592C248.251 19.4595 248.664 18.3607 248.926 17.3627C249.197 16.3517 249.242 15.5113 249.062 14.8416C248.844 14.0276 248.445 13.3396 247.863 12.7776C247.29 12.2025 246.614 11.8038 245.837 11.5814C245.067 11.3459 244.275 11.3373 243.461 11.5554C242.647 11.7735 241.955 12.1797 241.386 12.774C240.824 13.3553 240.433 14.0398 240.213 14.8275C239.991 15.6048 239.989 16.4005 240.207 17.2145L238.043 17.7942C237.712 16.5578 237.711 15.3599 238.041 14.2003C238.381 13.038 238.972 12.0293 239.814 11.1743C240.653 10.3089 241.676 9.7147 242.881 9.3917C244.087 9.06869 245.264 9.07347 246.413 9.40602C247.573 9.73582 248.58 10.3217 249.435 11.1638C250.301 12.0031 250.898 13.0358 251.226 14.2618C251.422 14.9934 251.442 15.8495 251.285 16.8302C251.136 17.7978 250.857 18.8387 250.449 19.953C250.038 21.057 249.547 22.1933 248.977 23.3621C248.407 24.5309 247.795 25.6887 247.141 26.8355C246.485 27.9721 245.841 29.0502 245.208 30.07L255.1 27.4197L255.679 29.5833L241.94 33.2648Z" fill="#32373B"/>
</svg>
