<svg width="48" height="48" viewBox="0 0 48 48" fill="none" xmlns="http://www.w3.org/2000/svg">
<mask id="mask0_192_713" style="mask-type:alpha" maskUnits="userSpaceOnUse" x="0" y="0" width="48" height="48">
<rect width="48" height="48" fill="#D9D9D9"/>
</mask>
<g mask="url(#mask0_192_713)">
<path d="M8 42V21.95L3.8 25.15L2 22.75L8 18.2V12.5H11V15.9L24 6L46 22.8L44.2 25.15L40 21.95V42H8ZM11 39H22.5V31H25.5V39H37V19.65L24 9.75L11 19.65V39ZM8 10C8 8.46667 8.54167 7.16667 9.625 6.1C10.7083 5.03333 12 4.5 13.5 4.5C14.2083 4.5 14.8022 4.25 15.2815 3.75C15.7605 3.25 16 2.66667 16 2H19C19 3.5 18.4653 4.79167 17.396 5.875C16.3263 6.95833 15.0277 7.5 13.5 7.5C12.8333 7.5 12.25 7.7395 11.75 8.2185C11.25 8.69783 11 9.29167 11 10H8Z" fill="#934541"/>
</g>
</svg>
