<svg width="48" height="48" viewBox="0 0 48 48" fill="none" xmlns="http://www.w3.org/2000/svg">
<mask id="mask0_192_743" style="mask-type:alpha" maskUnits="userSpaceOnUse" x="0" y="0" width="48" height="48">
<rect width="48" height="48" fill="#D9D9D9"/>
</mask>
<g mask="url(#mask0_192_743)">
<path d="M5.5 40C5.06667 40 4.70833 39.8583 4.425 39.575C4.14167 39.2917 4 38.9333 4 38.5C4 38.2667 4.05 38.05 4.15 37.85C4.25 37.65 4.4 37.4667 4.6 37.3L22.5 23.25V20.5C22.5 20.1 22.6417 19.75 22.925 19.45C23.2083 19.15 23.55 19 23.95 19C25.0833 19 26.0417 18.6083 26.825 17.825C27.6083 17.0417 28 16.0833 28 14.95C28 13.85 27.6083 12.9167 26.825 12.15C26.0417 11.3833 25.1 11 24 11C22.9 11 21.9583 11.3917 21.175 12.175C20.3917 12.9583 20 13.9 20 15H17C17 13.0667 17.6833 11.4167 19.05 10.05C20.4167 8.68333 22.0667 8 24 8C25.9333 8 27.5833 8.675 28.95 10.025C30.3167 11.375 31 13.0167 31 14.95C31 16.5833 30.4833 18.025 29.45 19.275C28.4167 20.525 27.1 21.3833 25.5 21.85V23.25L43.4 37.3C43.6 37.4667 43.75 37.65 43.85 37.85C43.95 38.05 44 38.2667 44 38.5C44 38.9333 43.8583 39.2917 43.575 39.575C43.2917 39.8583 42.9333 40 42.5 40H5.5ZM10 37H38L24 25.85L10 37Z" fill="#934541"/>
</g>
</svg>
