<svg width="48" height="48" viewBox="0 0 48 48" fill="none" xmlns="http://www.w3.org/2000/svg">
<mask id="mask0_192_728" style="mask-type:alpha" maskUnits="userSpaceOnUse" x="0" y="0" width="48" height="48">
<rect width="48" height="48" fill="#D9D9D9"/>
</mask>
<g mask="url(#mask0_192_728)">
<path d="M43.15 27.8L27.85 43.15C27.55 43.4333 27.2125 43.6458 26.8375 43.7875C26.4625 43.9292 26.0875 44 25.7125 44C25.3375 44 24.9667 43.925 24.6 43.775C24.2333 43.625 23.9 43.4167 23.6 43.15L4.9 24.4C4.63333 24.1333 4.41667 23.8173 4.25 23.452C4.08333 23.087 4 22.703 4 22.3V7C4 6.175 4.29383 5.46867 4.8815 4.881C5.46883 4.29367 6.175 4 7 4H22.35C22.7523 4 23.1422 4.08117 23.5195 4.2435C23.8965 4.40617 24.2233 4.625 24.5 4.9L43.15 23.55C43.463 23.85 43.6913 24.1875 43.835 24.5625C43.9783 24.9375 44.05 25.3125 44.05 25.6875C44.05 26.0625 43.975 26.4417 43.825 26.825C43.675 27.2083 43.45 27.5333 43.15 27.8ZM25.8 41.1L41.1 25.75L22.35 7H7V22.2L25.8 41.1ZM12.25 14.8C12.95 14.8 13.5583 14.5417 14.075 14.025C14.5917 13.5083 14.85 12.9 14.85 12.2C14.85 11.5 14.5917 10.8917 14.075 10.375C13.5583 9.85833 12.95 9.6 12.25 9.6C11.55 9.6 10.9417 9.85833 10.425 10.375C9.90833 10.8917 9.65 11.5 9.65 12.2C9.65 12.9 9.90833 13.5083 10.425 14.025C10.9417 14.5417 11.55 14.8 12.25 14.8Z" fill="#934541"/>
</g>
</svg>
