<svg width="48" height="48" viewBox="0 0 48 48" fill="none" xmlns="http://www.w3.org/2000/svg">
<mask id="mask0_192_733" style="mask-type:alpha" maskUnits="userSpaceOnUse" x="0" y="0" width="48" height="48">
<rect width="48" height="48" fill="#D9D9D9"/>
</mask>
<g mask="url(#mask0_192_733)">
<path d="M14.1 40L6 31.9L14.1 23.8L16.2 25.9L11.7 30.4H26V33.4H11.7L16.2 37.9L14.1 40ZM30.5 33.4C30.1 33.4 29.75 33.25 29.45 32.95C29.15 32.65 29 32.3 29 31.9C29 31.4667 29.15 31.1083 29.45 30.825C29.75 30.5417 30.1 30.4 30.5 30.4C30.9333 30.4 31.2917 30.5417 31.575 30.825C31.8583 31.1083 32 31.4667 32 31.9C32 32.3 31.8583 32.65 31.575 32.95C31.2917 33.25 30.9333 33.4 30.5 33.4ZM36.5 33.4C36.1 33.4 35.75 33.25 35.45 32.95C35.15 32.65 35 32.3 35 31.9C35 31.4667 35.15 31.1083 35.45 30.825C35.75 30.5417 36.1 30.4 36.5 30.4C36.9333 30.4 37.2917 30.5417 37.575 30.825C37.8583 31.1083 38 31.4667 38 31.9C38 32.3 37.8583 32.65 37.575 32.95C37.2917 33.25 36.9333 33.4 36.5 33.4ZM33.9 24.2L31.8 22.1L36.3 17.6H22V14.6H36.3L31.8 10.1L33.9 8L42 16.1L33.9 24.2ZM11.5 17.6C11.1 17.6 10.75 17.45 10.45 17.15C10.15 16.85 10 16.5 10 16.1C10 15.6667 10.15 15.3083 10.45 15.025C10.75 14.7417 11.1 14.6 11.5 14.6C11.9333 14.6 12.2917 14.7417 12.575 15.025C12.8583 15.3083 13 15.6667 13 16.1C13 16.5 12.8583 16.85 12.575 17.15C12.2917 17.45 11.9333 17.6 11.5 17.6ZM17.5 17.6C17.1 17.6 16.75 17.45 16.45 17.15C16.15 16.85 16 16.5 16 16.1C16 15.6667 16.15 15.3083 16.45 15.025C16.75 14.7417 17.1 14.6 17.5 14.6C17.9333 14.6 18.2917 14.7417 18.575 15.025C18.8583 15.3083 19 15.6667 19 16.1C19 16.5 18.8583 16.85 18.575 17.15C18.2917 17.45 17.9333 17.6 17.5 17.6Z" fill="#934541"/>
</g>
</svg>
