<svg width="48" height="48" viewBox="0 0 48 48" fill="none" xmlns="http://www.w3.org/2000/svg">
<mask id="mask0_192_738" style="mask-type:alpha" maskUnits="userSpaceOnUse" x="0" y="0" width="48" height="48">
<rect width="48" height="48" fill="#D9D9D9"/>
</mask>
<g mask="url(#mask0_192_738)">
<path d="M9 42C8.175 42 7.46883 41.7062 6.8815 41.1185C6.29383 40.5312 6 39.825 6 39V9C6 8.175 6.29383 7.46867 6.8815 6.881C7.46883 6.29367 8.175 6 9 6H19.25C19.4167 4.83333 19.95 3.875 20.85 3.125C21.75 2.375 22.8 2 24 2C25.2 2 26.25 2.375 27.15 3.125C28.05 3.875 28.5833 4.83333 28.75 6H39C39.825 6 40.5313 6.29367 41.119 6.881C41.7063 7.46867 42 8.175 42 9V39C42 39.825 41.7063 40.5312 41.119 41.1185C40.5313 41.7062 39.825 42 39 42H9ZM9 39H39V9H9V39ZM14 34H27.65V31H14V34ZM14 25.5H34V22.5H14V25.5ZM14 17H34V14H14V17ZM24 8.15C24.4667 8.15 24.875 7.975 25.225 7.625C25.575 7.275 25.75 6.86667 25.75 6.4C25.75 5.93333 25.575 5.525 25.225 5.175C24.875 4.825 24.4667 4.65 24 4.65C23.5333 4.65 23.125 4.825 22.775 5.175C22.425 5.525 22.25 5.93333 22.25 6.4C22.25 6.86667 22.425 7.275 22.775 7.625C23.125 7.975 23.5333 8.15 24 8.15Z" fill="#934541"/>
</g>
</svg>
