<svg width="48" height="48" viewBox="0 0 48 48" fill="none" xmlns="http://www.w3.org/2000/svg">
<mask id="mask0_192_723" style="mask-type:alpha" maskUnits="userSpaceOnUse" x="0" y="0" width="48" height="48">
<rect width="48" height="48" fill="#D9D9D9"/>
</mask>
<g mask="url(#mask0_192_723)">
<path d="M23.95 43.8999C21.4833 43.8999 19.1583 43.4332 16.975 42.4999C14.7917 41.5666 12.8917 40.2916 11.275 38.6749C9.65833 37.0582 8.375 35.1582 7.425 32.9749C6.475 30.7916 6 28.4544 6 25.9634C6 23.4721 6.475 21.1387 7.425 18.9634C8.375 16.7877 9.65833 14.8832 11.275 13.2499C12.8917 11.6166 14.7917 10.3332 16.975 9.3999C19.1583 8.46657 21.4833 7.9999 23.95 7.9999C26.4167 7.9999 28.7417 8.46657 30.925 9.3999C33.1083 10.3332 35.0167 11.6166 36.65 13.2499C38.2833 14.8832 39.5667 16.7877 40.5 18.9634C41.4333 21.1387 41.9 23.4721 41.9 25.9634C41.9 28.4544 41.4333 30.7916 40.5 32.9749C39.5667 35.1582 38.2833 37.0582 36.65 38.6749C35.0167 40.2916 33.1083 41.5666 30.925 42.4999C28.7417 43.4332 26.4167 43.8999 23.95 43.8999ZM30 34.0999L32.1 31.9999L25.6 25.4999V15.9999H22.6V26.6999L30 34.0999ZM10.7 4.6499L12.8 6.7499L4.6 14.6499L2.5 12.5499L10.7 4.6499ZM37.2 4.6499L45.4 12.5499L43.3 14.6499L35.1 6.7499L37.2 4.6499ZM23.952 40.8999C28.1173 40.8999 31.65 39.4492 34.55 36.5479C37.45 33.6462 38.9 30.1129 38.9 25.9479C38.9 21.7826 37.4493 18.2499 34.548 15.3499C31.6463 12.4499 28.113 10.9999 23.948 10.9999C19.7827 10.9999 16.25 12.4506 13.35 15.3519C10.45 18.2536 9 21.7869 9 25.9519C9 30.1172 10.4507 33.6499 13.352 36.5499C16.2537 39.4499 19.787 40.8999 23.952 40.8999Z" fill="#934541"/>
</g>
</svg>
