<svg width="48" height="48" viewBox="0 0 48 48" fill="none" xmlns="http://www.w3.org/2000/svg">
<mask id="mask0_192_708" style="mask-type:alpha" maskUnits="userSpaceOnUse" x="0" y="0" width="48" height="48">
<rect width="48" height="48" fill="#D9D9D9"/>
</mask>
<g mask="url(#mask0_192_708)">
<path d="M9 16.5H39V10H9V16.5ZM9 44C8.2 44 7.5 43.7 6.9 43.1C6.3 42.5 6 41.8 6 41V10C6 9.2 6.3 8.5 6.9 7.9C7.5 7.3 8.2 7 9 7H12.25V4H15.5V7H32.5V4H35.75V7H39C39.8 7 40.5 7.3 41.1 7.9C41.7 8.5 42 9.2 42 10V25.35C41.5277 25.107 41.043 24.9047 40.546 24.743C40.0487 24.581 39.5333 24.45 39 24.35V19.5H9V41H24.95C25.15 41.5667 25.3833 42.0917 25.65 42.575C25.9167 43.0583 26.2333 43.5333 26.6 44H9ZM36.55 46C33.9357 46 31.707 45.0787 29.864 43.236C28.0213 41.393 27.1 39.1643 27.1 36.55C27.1 33.9357 28.0213 31.707 29.864 29.864C31.707 28.0213 33.9357 27.1 36.55 27.1C39.1643 27.1 41.393 28.0213 43.236 29.864C45.0787 31.707 46 33.9357 46 36.55C46 39.1643 45.0787 41.393 43.236 43.236C41.393 45.0787 39.1643 46 36.55 46ZM39.462 41.6L40.85 40.2L37.1 36.45V30.85H35.15V37.15L39.462 41.6Z" fill="#934541"/>
</g>
</svg>
