<svg width="48" height="48" viewBox="0 0 48 48" fill="none" xmlns="http://www.w3.org/2000/svg">
<mask id="mask0_192_718" style="mask-type:alpha" maskUnits="userSpaceOnUse" x="0" y="0" width="48" height="48">
<rect width="48" height="48" fill="#D9D9D9"/>
</mask>
<g mask="url(#mask0_192_718)">
<path d="M20 28C18.3333 28 16.9167 27.4167 15.75 26.25C14.5833 25.0833 14 23.6667 14 22C14 21.2667 14.1167 20.575 14.35 19.925C14.5833 19.275 14.9333 18.6833 15.4 18.15C15.2667 17.8167 15.1667 17.4667 15.1 17.1C15.0333 16.7333 15 16.3667 15 16C15 14.7333 15.3417 13.6083 16.025 12.625C16.7083 11.6417 17.6 10.9167 18.7 10.45C19.3667 9.68333 20.15 9.08333 21.05 8.65C21.95 8.21667 22.9333 8 24 8C25.0667 8 26.05 8.21667 26.95 8.65C27.85 9.08333 28.6333 9.68333 29.3 10.45C30.4 10.9167 31.2917 11.6417 31.975 12.625C32.6583 13.6083 33 14.7333 33 16C33 16.3667 32.9667 16.7333 32.9 17.1C32.8333 17.4667 32.7333 17.8167 32.6 18.15C33.0667 18.6833 33.4167 19.275 33.65 19.925C33.8833 20.575 34 21.2667 34 22C34 23.6667 33.4167 25.0833 32.25 26.25C31.0833 27.4167 29.6667 28 28 28H20ZM20 25H28C28.85 25 29.5625 24.6917 30.1375 24.075C30.7125 23.4583 31 22.7673 31 22.002C31 21.6673 30.95 21.3417 30.85 21.025C30.75 20.7083 30.5667 20.4 30.3 20.1C30.0333 19.7667 29.85 19.4478 29.75 19.1435C29.65 18.8388 29.6 18.5525 29.6 18.2845C29.6 17.8948 29.6667 17.5083 29.8 17.125C29.9333 16.7417 30 16.3658 30 15.9975C30 15.3658 29.8333 14.8083 29.5 14.325C29.1667 13.8417 28.7167 13.4667 28.15 13.2C27.9167 13.1 27.7167 12.9833 27.55 12.85C27.3833 12.7167 27.2167 12.5667 27.05 12.4C26.8243 12.1333 26.4518 11.8333 25.9325 11.5C25.4128 11.1667 24.7692 11 24.0015 11C23.2338 11 22.5898 11.1758 22.0695 11.5275C21.5495 11.8788 21.1763 12.1863 20.95 12.45C20.7833 12.6167 20.6167 12.775 20.45 12.925C20.2833 13.075 20.0833 13.1833 19.85 13.25C19.2833 13.4833 18.8333 13.8417 18.5 14.325C18.1667 14.8083 18 15.3658 18 15.9975C18 16.3658 18.0667 16.7417 18.2 17.125C18.3333 17.5083 18.4 17.8948 18.4 18.2845C18.4 18.5525 18.35 18.8388 18.25 19.1435C18.15 19.4478 17.9667 19.7667 17.7 20.1C17.4333 20.4 17.25 20.7083 17.15 21.025C17.05 21.3417 17 21.6673 17 22.002C17 22.7673 17.2875 23.4583 17.8625 24.075C18.4375 24.6917 19.15 25 20 25ZM8 44V39.3C8 38.0333 8.31667 36.95 8.95 36.05C9.58333 35.15 10.4 34.4667 11.4 34C13.6333 33 15.775 32.25 17.825 31.75C19.875 31.25 21.9333 31 24 31C26.0667 31 28.1167 31.2583 30.15 31.775C32.1833 32.2917 34.3153 33.0365 36.546 34.0095C37.5893 34.4805 38.4258 35.1633 39.0555 36.058C39.6852 36.9527 40 38.0333 40 39.3V44H8ZM11 41H37V39.3C37 38.7667 36.8417 38.2583 36.525 37.775C36.2083 37.2917 35.8167 36.9333 35.35 36.7C33.2167 35.6667 31.2667 34.9583 29.5 34.575C27.7333 34.1917 25.9 34 24 34C22.1 34 20.25 34.1917 18.45 34.575C16.65 34.9583 14.7 35.6667 12.6 36.7C12.1333 36.9333 11.75 37.2917 11.45 37.775C11.15 38.2583 11 38.7667 11 39.3V41Z" fill="#934541"/>
</g>
</svg>
