<svg width="390" height="46" viewBox="0 0 390 46" fill="none" xmlns="http://www.w3.org/2000/svg">
<circle cx="10" cy="10" r="10" fill="#C55B45"/>
<circle cx="36" cy="10" r="10" fill="#C55B45"/>
<circle cx="62" cy="10" r="10" fill="#C55B45"/>
<circle cx="88" cy="10" r="10" fill="#C55B45"/>
<circle cx="114" cy="10" r="10" fill="#C55B45"/>
<circle cx="140" cy="10" r="10" fill="#C55B45"/>
<circle cx="166" cy="10" r="10" fill="#C55B45"/>
<circle cx="192" cy="10" r="10" fill="#C55B45"/>
<circle cx="218" cy="10" r="10" fill="#C55B45"/>
<circle cx="244" cy="10" r="10" fill="#C55B45"/>
<circle cx="270" cy="10" r="10" fill="#C55B45"/>
<circle cx="296" cy="10" r="10" fill="#C55B45"/>
<circle cx="322" cy="10" r="10" fill="#C55B45"/>
<circle cx="348" cy="10" r="10" fill="#C55B45"/>
<circle cx="374" cy="10" r="10" fill="#C55B45"/>
<circle cx="10" cy="36" r="10" fill="#C55B45"/>
<circle cx="36" cy="36" r="10" fill="#C55B45"/>
<circle cx="62" cy="36" r="10" fill="#C55B45"/>
<circle cx="88" cy="36" r="10" fill="#C55B45"/>
<circle cx="114" cy="36" r="10" fill="#C55B45"/>
<circle cx="140" cy="36" r="10" fill="#C55B45"/>
<circle cx="166" cy="36" r="10" fill="#C55B45"/>
<circle cx="192" cy="36" r="10" fill="#C55B45"/>
<circle cx="218" cy="36" r="10" fill="#C55B45"/>
<circle cx="244" cy="36" r="10" fill="#C55B45"/>
<circle cx="270" cy="36" r="10" fill="#C55B45"/>
<circle cx="296" cy="36" r="10" fill="#C55B45"/>
<circle cx="322" cy="36" r="10" fill="#C55B45"/>
<circle cx="348" cy="36" r="10" fill="#C55B45"/>
<circle cx="374" cy="36" r="10" fill="#C55B45"/>
</svg>
