<svg width="1092" height="58" viewBox="0 0 1092 58" fill="none" xmlns="http://www.w3.org/2000/svg">
<circle cx="10" cy="16" r="10" fill="#C55B45"/>
<circle cx="36" cy="16" r="10" fill="#C55B45"/>
<circle cx="62" cy="16" r="10" fill="#C55B45"/>
<circle cx="88" cy="16" r="10" fill="#C55B45"/>
<circle cx="114" cy="16" r="10" fill="#C55B45"/>
<circle cx="140" cy="16" r="10" fill="#C55B45"/>
<path d="M162.123 24.2541C162.593 24.1632 163.181 24.1259 163.78 24.2862C164.378 24.4465 164.869 24.7732 165.23 25.0866C165.709 25.5023 165.726 26.1961 165.395 26.7373C165.012 27.3643 164.49 28.1988 164.056 28.8128C163.565 29.5101 162.853 30.3982 162.361 30.9986C162.139 31.2691 161.71 31.1539 161.653 30.8088C161.527 30.043 161.355 28.9179 161.277 28.0681C161.209 27.3197 161.173 26.3357 161.155 25.6013C161.139 24.9673 161.501 24.3747 162.123 24.2541Z" fill="#DFA13E"/>
<path d="M168.22 24.2862C168.819 24.1259 169.407 24.1632 169.877 24.2542C170.499 24.3748 170.861 24.9672 170.845 25.6011C170.827 26.3356 170.791 27.3196 170.723 28.068C170.646 28.9178 170.474 30.0427 170.348 30.8086C170.291 31.1537 169.861 31.2689 169.64 30.9984C169.148 30.3981 168.436 29.5099 167.944 28.8127C167.511 28.1987 166.988 27.3644 166.605 26.7374C166.274 26.1962 166.291 25.5023 166.77 25.0865C167.131 24.7731 167.622 24.4465 168.22 24.2862Z" fill="#DFA13E"/>
<path d="M157.004 21.8925C157.307 21.3356 157.916 21.0032 158.516 21.21C158.968 21.3659 159.496 21.628 159.934 22.0659C160.372 22.5039 160.634 23.0324 160.79 23.4843C160.997 24.0837 160.664 24.693 160.108 24.9964C159.463 25.348 158.593 25.8093 157.91 26.1245C157.136 26.4823 156.075 26.8956 155.349 27.1696C155.022 27.2931 154.707 26.9785 154.831 26.6513C155.105 25.9251 155.518 24.8645 155.876 24.0898C156.191 23.4075 156.652 22.5377 157.004 21.8925Z" fill="#DFA13E"/>
<path d="M173.484 21.2099C174.084 21.0032 174.693 21.3355 174.996 21.8923C175.348 22.5374 175.809 23.4073 176.124 24.0895C176.482 24.8642 176.896 25.9246 177.17 26.6507C177.293 26.9779 176.978 27.2926 176.651 27.1692C175.925 26.8952 174.865 26.482 174.09 26.1242C173.408 25.8091 172.538 25.3479 171.893 24.9964C171.336 24.693 171.003 24.0836 171.21 23.4841C171.366 23.0322 171.628 22.5038 172.066 22.0658C172.504 21.6279 173.032 21.3659 173.484 21.2099Z" fill="#DFA13E"/>
<path d="M166.085 8.16983C170.411 8.16984 173.919 11.6773 173.919 16.004C173.919 20.3307 170.411 23.8382 166.085 23.8382C161.758 23.8382 158.25 20.3307 158.25 16.004C158.25 11.6773 161.758 8.16983 166.085 8.16983Z" fill="#DFA13E"/>
<path d="M155.263 16.6048C155.804 16.2743 156.498 16.2911 156.913 16.7699C157.227 17.1309 157.554 17.622 157.714 18.2203C157.874 18.8186 157.837 19.4073 157.746 19.8767C157.625 20.4991 157.033 20.8606 156.399 20.8449C155.664 20.8268 154.68 20.7914 153.932 20.7232C153.082 20.6458 151.957 20.4736 151.191 20.3478C150.846 20.2911 150.731 19.8613 151.002 19.6396C151.602 19.1477 152.49 18.4359 153.187 17.9439C153.801 17.5106 154.636 16.9878 155.263 16.6048Z" fill="#DFA13E"/>
<path d="M175.087 16.7698C175.502 16.291 176.196 16.2742 176.737 16.6047C177.364 16.9876 178.199 17.5103 178.813 17.9435C179.51 18.4355 180.398 19.1472 180.999 19.639C181.269 19.8607 181.154 20.2904 180.809 20.3472C180.043 20.473 178.918 20.6454 178.068 20.7229C177.32 20.7911 176.336 20.8267 175.601 20.8449C174.967 20.8605 174.375 20.4991 174.254 19.8765C174.163 19.4072 174.126 18.8185 174.286 18.2202C174.446 17.6219 174.773 17.1308 175.087 16.7698Z" fill="#DFA13E"/>
<path d="M156.399 11.1551C157.033 11.1395 157.625 11.5009 157.746 12.1235C157.837 12.5928 157.874 13.1815 157.714 13.7798C157.554 14.3781 157.227 14.8692 156.913 15.2301C156.498 15.7089 155.804 15.7258 155.263 15.3953C154.636 15.0124 153.801 14.4897 153.187 14.0565C152.49 13.5645 151.602 12.8528 151.001 12.361C150.731 12.1394 150.846 11.7095 151.191 11.6528C151.957 11.5269 153.082 11.3546 153.932 11.2771C154.68 11.2089 155.664 11.1733 156.399 11.1551Z" fill="#DFA13E"/>
<path d="M175.601 11.155C176.336 11.1731 177.32 11.2085 178.068 11.2767C178.918 11.3541 180.043 11.5264 180.809 11.6521C181.154 11.7088 181.269 12.1387 180.998 12.3604C180.398 12.8523 179.51 13.5641 178.813 14.0561C178.199 14.4894 177.364 15.0121 176.737 15.3951C176.196 15.7257 175.502 15.7089 175.087 15.2301C174.773 14.8691 174.446 14.378 174.286 13.7797C174.126 13.1814 174.163 12.5927 174.254 12.1233C174.375 11.5008 174.967 11.1394 175.601 11.155Z" fill="#DFA13E"/>
<path d="M154.83 5.34921C154.707 5.02202 155.022 4.70739 155.349 4.8308C156.075 5.10476 157.135 5.51796 157.91 5.87578C158.592 6.1909 159.462 6.6521 160.107 7.00359C160.664 7.30698 160.997 7.9163 160.79 8.51578C160.634 8.9677 160.372 9.49619 159.934 9.93416C159.496 10.3721 158.968 10.6341 158.516 10.79C157.916 10.9968 157.307 10.6644 157.004 10.1076C156.652 9.46251 156.191 8.59262 155.876 7.91038C155.518 7.13573 155.104 6.07536 154.83 5.34921Z" fill="#DFA13E"/>
<path d="M176.651 4.83033C176.978 4.70686 177.293 5.02153 177.169 5.34874C176.895 6.07495 176.482 7.13542 176.124 7.91015C175.809 8.5924 175.348 9.46231 174.996 10.1075C174.693 10.6643 174.084 10.9968 173.484 10.79C173.032 10.6341 172.504 10.3721 172.066 9.93408C171.628 9.49609 171.366 8.96755 171.21 8.51562C171.003 7.91621 171.336 7.30692 171.892 7.00351C172.538 6.65196 173.407 6.19073 174.09 5.87555C174.864 5.51767 175.925 5.10434 176.651 4.83033Z" fill="#DFA13E"/>
<path d="M161.652 1.19131C161.709 0.846223 162.139 0.731086 162.36 1.00159C162.852 1.60195 163.564 2.49001 164.056 3.18725C164.489 3.80127 165.012 4.63564 165.395 5.26263C165.726 5.80381 165.709 6.49773 165.23 6.91348C164.869 7.22689 164.378 7.55353 163.78 7.71384C163.181 7.87416 162.593 7.83679 162.123 7.74584C161.501 7.62521 161.139 7.03272 161.155 6.39883C161.173 5.66436 161.209 4.68042 161.277 3.93201C161.354 3.0822 161.526 1.95719 161.652 1.19131Z" fill="#DFA13E"/>
<path d="M169.639 1.00143C169.861 0.730905 170.291 0.846057 170.347 1.19115C170.473 1.95704 170.645 3.08201 170.723 3.93185C170.791 4.68024 170.827 5.66419 170.845 6.39867C170.861 7.03263 170.499 7.62522 169.877 7.74584C169.407 7.83677 168.819 7.87415 168.22 7.71384C167.622 7.55353 167.131 7.22682 166.77 6.9134C166.291 6.49767 166.274 5.80378 166.605 5.26263C166.988 4.63561 167.51 3.80124 167.944 3.18717C168.435 2.48991 169.147 1.60181 169.639 1.00143Z" fill="#DFA13E"/>
<circle cx="192" cy="16" r="10" fill="#C55B45"/>
<circle cx="218" cy="16" r="10" fill="#C55B45"/>
<circle cx="244" cy="16" r="10" fill="#C55B45"/>
<circle cx="270" cy="16" r="10" fill="#C55B45"/>
<circle cx="296" cy="16" r="10" fill="#C55B45"/>
<circle cx="322" cy="16" r="10" fill="#C55B45"/>
<circle cx="348" cy="16" r="10" fill="#C55B45"/>
<circle cx="374" cy="16" r="10" fill="#C55B45"/>
<circle cx="400" cy="16" r="10" fill="#C55B45"/>
<circle cx="426" cy="16" r="10" fill="#C55B45"/>
<circle cx="452" cy="16" r="10" fill="#C55B45"/>
<circle cx="478" cy="16" r="10" fill="#C55B45"/>
<circle cx="504" cy="16" r="10" fill="#C55B45"/>
<circle cx="530" cy="16" r="10" fill="#C55B45"/>
<circle cx="556" cy="16" r="10" fill="#C55B45"/>
<circle cx="582" cy="16" r="10" fill="#C55B45"/>
<circle cx="608" cy="16" r="10" fill="#C55B45"/>
<circle cx="634" cy="16" r="10" fill="#C55B45"/>
<circle cx="660" cy="16" r="10" fill="#C55B45"/>
<circle cx="686" cy="16" r="10" fill="#C55B45"/>
<circle cx="712" cy="16" r="10" fill="#C55B45"/>
<circle cx="738" cy="16" r="10" fill="#C55B45"/>
<circle cx="764" cy="16" r="10" fill="#C55B45"/>
<circle cx="790" cy="16" r="10" fill="#C55B45"/>
<circle cx="816" cy="16" r="10" fill="#C55B45"/>
<circle cx="842" cy="16" r="10" fill="#C55B45"/>
<circle cx="868" cy="16" r="10" fill="#C55B45"/>
<circle cx="894" cy="16" r="10" fill="#C55B45"/>
<circle cx="920" cy="16" r="10" fill="#C55B45"/>
<circle cx="946" cy="16" r="10" fill="#C55B45"/>
<circle cx="972" cy="16" r="10" fill="#C55B45"/>
<circle cx="998" cy="16" r="10" fill="#C55B45"/>
<circle cx="1024" cy="16" r="10" fill="#C55B45"/>
<circle cx="1050" cy="16" r="10" fill="#C55B45"/>
<circle cx="1076" cy="16" r="10" fill="#C55B45"/>
<circle cx="10" cy="42" r="10" fill="#C55B45"/>
<circle cx="36" cy="42" r="10" fill="#C55B45"/>
<circle cx="62" cy="42" r="10" fill="#C55B45"/>
<circle cx="88" cy="42" r="10" fill="#C55B45"/>
<circle cx="114" cy="42" r="10" fill="#C55B45"/>
<circle cx="140" cy="42" r="10" fill="#C55B45"/>
<circle cx="166" cy="42" r="10" fill="#C55B45"/>
<circle cx="192" cy="42" r="10" fill="#C55B45"/>
<circle cx="218" cy="42" r="10" fill="#C55B45"/>
<circle cx="244" cy="42" r="10" fill="#C55B45"/>
<circle cx="270" cy="42" r="10" fill="#C55B45"/>
<circle cx="296" cy="42" r="10" fill="#C55B45"/>
<circle cx="322" cy="42" r="10" fill="#C55B45"/>
<circle cx="348" cy="42" r="10" fill="#C55B45"/>
<circle cx="374" cy="42" r="10" fill="#C55B45"/>
<circle cx="400" cy="42" r="10" fill="#C55B45"/>
<circle cx="426" cy="42" r="10" fill="#C55B45"/>
<circle cx="452" cy="42" r="10" fill="#C55B45"/>
<circle cx="478" cy="42" r="10" fill="#C55B45"/>
<circle cx="504" cy="42" r="10" fill="#C55B45"/>
<circle cx="530" cy="42" r="10" fill="#C55B45"/>
<circle cx="556" cy="42" r="10" fill="#C55B45"/>
<circle cx="582" cy="42" r="10" fill="#C55B45"/>
<circle cx="608" cy="42" r="10" fill="#C55B45"/>
<circle cx="634" cy="42" r="10" fill="#C55B45"/>
<circle cx="660" cy="42" r="10" fill="#C55B45"/>
<circle cx="712" cy="42" r="10" fill="#C55B45"/>
<circle cx="738" cy="42" r="10" fill="#C55B45"/>
<circle cx="764" cy="42" r="10" fill="#C55B45"/>
<circle cx="790" cy="42" r="10" fill="#C55B45"/>
<circle cx="816" cy="42" r="10" fill="#C55B45"/>
<circle cx="842" cy="42" r="10" fill="#C55B45"/>
<circle cx="868" cy="42" r="10" fill="#C55B45"/>
<circle cx="894" cy="42" r="10" fill="#C55B45"/>
<circle cx="920" cy="42" r="10" fill="#C55B45"/>
<circle cx="946" cy="42" r="10" fill="#C55B45"/>
<circle cx="972" cy="42" r="10" fill="#C55B45"/>
<circle cx="998" cy="42" r="10" fill="#C55B45"/>
<circle cx="1024" cy="42" r="10" fill="#C55B45"/>
<circle cx="1050" cy="42" r="10" fill="#C55B45"/>
<circle cx="1076" cy="42" r="10" fill="#C55B45"/>
<path d="M682.123 51.1056C682.593 51.0147 683.181 50.9774 683.78 51.1377C684.378 51.298 684.869 51.6247 685.23 51.9382C685.709 52.3539 685.726 53.0477 685.395 53.5889C685.012 54.2159 684.49 55.0503 684.056 55.6644C683.565 56.3617 682.853 57.2498 682.361 57.8501C682.139 58.1206 681.71 58.0055 681.653 57.6604C681.527 56.8945 681.355 55.7695 681.277 54.9196C681.209 54.1712 681.173 53.1873 681.155 52.4528C681.139 51.8189 681.501 51.2263 682.123 51.1056Z" fill="#DFA13E"/>
<path d="M688.22 51.1377C688.819 50.9774 689.407 51.0148 689.877 51.1057C690.499 51.2264 690.861 51.8188 690.845 52.4527C690.827 53.1871 690.791 54.1711 690.723 54.9196C690.646 55.7694 690.474 56.8943 690.348 57.6602C690.291 58.0053 689.861 58.1205 689.64 57.85C689.148 57.2496 688.436 56.3615 687.944 55.6642C687.511 55.0502 686.988 54.2159 686.605 53.5889C686.274 53.0478 686.291 52.3538 686.77 51.9381C687.131 51.6247 687.622 51.298 688.22 51.1377Z" fill="#DFA13E"/>
<path d="M677.004 48.7441C677.307 48.1872 677.916 47.8548 678.516 48.0616C678.968 48.2175 679.496 48.4795 679.934 48.9175C680.372 49.3555 680.634 49.8839 680.79 50.3359C680.997 50.9353 680.664 51.5446 680.108 51.848C679.463 52.1995 678.593 52.6608 677.91 52.976C677.136 53.3339 676.075 53.7471 675.349 54.0212C675.022 54.1446 674.707 53.83 674.831 53.5028C675.105 52.7766 675.518 51.7161 675.876 50.9413C676.191 50.2591 676.652 49.3892 677.004 48.7441Z" fill="#DFA13E"/>
<path d="M693.484 48.0615C694.084 47.8547 694.693 48.1871 694.996 48.7438C695.348 49.389 695.809 50.2589 696.124 50.9411C696.482 51.7157 696.896 52.7761 697.17 53.5023C697.293 53.8295 696.978 54.1442 696.651 54.0208C695.925 53.7468 694.865 53.3336 694.09 52.9758C693.408 52.6607 692.538 52.1995 691.893 51.848C691.336 51.5446 691.003 50.9352 691.21 50.3357C691.366 49.8838 691.628 49.3554 692.066 48.9174C692.504 48.4794 693.032 48.2174 693.484 48.0615Z" fill="#DFA13E"/>
<path d="M686.085 35.0214C690.411 35.0214 693.919 38.5289 693.919 42.8556C693.919 47.1823 690.411 50.6897 686.085 50.6897C681.758 50.6897 678.25 47.1823 678.25 42.8556C678.25 38.5289 681.758 35.0214 686.085 35.0214Z" fill="#DFA13E"/>
<path d="M675.263 43.4564C675.804 43.1258 676.498 43.1426 676.913 43.6215C677.227 43.9825 677.554 44.4736 677.714 45.0719C677.874 45.6702 677.837 46.2589 677.746 46.7282C677.625 47.3507 677.033 47.7121 676.399 47.6965C675.664 47.6784 674.68 47.6429 673.932 47.5748C673.082 47.4974 671.957 47.3251 671.191 47.1993C670.846 47.1427 670.731 46.7129 671.002 46.4912C671.602 45.9993 672.49 45.2874 673.187 44.7954C673.801 44.3621 674.636 43.8394 675.263 43.4564Z" fill="#DFA13E"/>
<path d="M695.087 43.6213C695.502 43.1426 696.196 43.1258 696.737 43.4563C697.364 43.8392 698.199 44.3619 698.813 44.7951C699.51 45.287 700.398 45.9987 700.999 46.4906C701.269 46.7122 701.154 47.142 700.809 47.1987C700.043 47.3246 698.918 47.497 698.068 47.5745C697.32 47.6427 696.336 47.6782 695.601 47.6964C694.967 47.7121 694.375 47.3506 694.254 46.7281C694.163 46.2587 694.126 45.6701 694.286 45.0718C694.446 44.4735 694.773 43.9823 695.087 43.6213Z" fill="#DFA13E"/>
<path d="M676.399 38.0067C677.033 37.991 677.625 38.3525 677.746 38.9751C677.837 39.4444 677.874 40.033 677.714 40.6313C677.554 41.2296 677.227 41.7207 676.913 42.0817C676.498 42.5605 675.804 42.5773 675.263 42.2469C674.636 41.864 673.801 41.3413 673.187 40.908C672.49 40.4161 671.602 39.7044 671.001 39.2125C670.731 38.9909 670.846 38.561 671.191 38.5043C671.957 38.3785 673.082 38.2061 673.932 38.1287C674.68 38.0604 675.664 38.0249 676.399 38.0067Z" fill="#DFA13E"/>
<path d="M695.601 38.0065C696.336 38.0247 697.32 38.0601 698.068 38.1283C698.918 38.2057 700.043 38.3779 700.809 38.5037C701.154 38.5604 701.269 38.9903 700.998 39.2119C700.398 39.7039 699.51 40.4156 698.813 40.9076C698.199 41.3409 697.364 41.8637 696.737 42.2466C696.196 42.5772 695.502 42.5605 695.087 42.0816C694.773 41.7206 694.446 41.2295 694.286 40.6312C694.126 40.0329 694.163 39.4442 694.254 38.9749C694.375 38.3524 694.967 37.9909 695.601 38.0065Z" fill="#DFA13E"/>
<path d="M674.83 32.2008C674.707 31.8736 675.022 31.559 675.349 31.6824C676.075 31.9563 677.135 32.3695 677.91 32.7273C678.592 33.0425 679.462 33.5037 680.107 33.8552C680.664 34.1585 680.997 34.7679 680.79 35.3673C680.634 35.8193 680.372 36.3478 679.934 36.7857C679.496 37.2237 678.968 37.4856 678.516 37.6415C677.916 37.8483 677.307 37.516 677.004 36.9592C676.652 36.3141 676.191 35.4442 675.876 34.7619C675.518 33.9873 675.104 32.9269 674.83 32.2008Z" fill="#DFA13E"/>
<path d="M696.651 31.6819C696.978 31.5584 697.293 31.8731 697.169 32.2003C696.895 32.9265 696.482 33.987 696.124 34.7617C695.809 35.444 695.348 36.3139 694.996 36.9591C694.693 37.5159 694.084 37.8483 693.484 37.6415C693.032 37.4856 692.504 37.2236 692.066 36.7856C691.628 36.3476 691.366 35.8191 691.21 35.3672C691.003 34.7678 691.336 34.1585 691.892 33.8551C692.538 33.5035 693.407 33.0423 694.09 32.7271C694.864 32.3692 695.925 31.9559 696.651 31.6819Z" fill="#DFA13E"/>
<path d="M681.652 28.0429C681.709 27.6978 682.139 27.5826 682.36 27.8532C682.852 28.4535 683.564 29.3416 684.056 30.0388C684.489 30.6528 685.012 31.4872 685.395 32.1142C685.726 32.6554 685.709 33.3493 685.23 33.765C684.869 34.0785 684.378 34.4051 683.78 34.5654C683.181 34.7257 682.593 34.6884 682.123 34.5974C681.501 34.4768 681.139 33.8843 681.155 33.2504C681.173 32.5159 681.209 31.532 681.277 30.7836C681.354 29.9338 681.526 28.8087 681.652 28.0429Z" fill="#DFA13E"/>
<path d="M689.639 27.853C689.861 27.5825 690.291 27.6976 690.347 28.0427C690.473 28.8086 690.645 29.9336 690.723 30.7834C690.791 31.5318 690.827 32.5157 690.845 33.2502C690.861 33.8842 690.499 34.4768 689.877 34.5974C689.407 34.6883 688.819 34.7257 688.22 34.5654C687.622 34.4051 687.131 34.0784 686.77 33.765C686.291 33.3492 686.274 32.6553 686.605 32.1142C686.988 31.4872 687.51 30.6528 687.944 30.0387C688.435 29.3415 689.147 28.4534 689.639 27.853Z" fill="#DFA13E"/>
</svg>
